<?xml version="1.0" encoding="UTF-8"?>
<svg id="Layer_2" data-name="Layer 2" xmlns="http://www.w3.org/2000/svg" viewBox="0 0 203.31 42.47">
  <defs>
    <style>
      .cls-1 {
        fill: #fff;
        stroke-width: 0px;
      }
    </style>
  </defs>
  <g id="Export">
    <g>
      <path class="cls-1" d="M131.11,15.72c-1.54,0-2.75.49-3.62,1.47-.87.98-1.31,2.33-1.31,4.03s.44,3.02,1.31,4c.87.98,2.08,1.47,3.62,1.47s2.72-.5,3.61-1.49c.88-.99,1.32-2.32,1.32-3.98s-.44-3.05-1.32-4.03c-.88-.98-2.08-1.47-3.61-1.47Z"/>
      <path class="cls-1" d="M37.72,23.32h-3.44v3.89h3.47c1.5,0,2.25-.63,2.25-1.89,0-.65-.2-1.15-.59-1.49-.4-.34-.96-.52-1.69-.52Z"/>
      <path class="cls-1" d="M39.54,17.24c0-1.28-.75-1.92-2.25-1.92h-3.01v3.77h3.01c1.5,0,2.25-.62,2.25-1.86Z"/>
      <path class="cls-1" d="M182.06,0H21.25C9.51,0,0,9.51,0,21.23h0c0,11.73,9.51,21.24,21.25,21.24h160.81c11.74,0,21.25-9.51,21.25-21.24h0c0-11.73-9.51-21.24-21.25-21.24ZM44.23,30.46c-1.26,1.03-3.02,1.55-5.3,1.55h-10.62V10.58h10.29c2.19,0,3.91.49,5.16,1.46,1.25.97,1.87,2.34,1.87,4.11,0,1.26-.33,2.31-.99,3.15-.66.84-1.54,1.41-2.63,1.72,1.26.28,2.26.91,3,1.87.74.96,1.11,2.06,1.11,3.3,0,1.82-.63,3.25-1.89,4.29ZM67.11,23.01c0,1.97-.42,3.64-1.25,5.03-.83,1.39-1.96,2.43-3.39,3.13s-3.02,1.05-4.76,1.05-3.3-.35-4.67-1.05-2.45-1.74-3.23-3.12c-.78-1.38-1.17-3.06-1.17-5.05v-12.44h5.93v12.44c0,1.16.27,2.05.81,2.68.54.63,1.35.94,2.45.94s1.92-.32,2.48-.96c.56-.64.84-1.53.84-2.66v-12.44h5.96v12.44ZM82.36,25.2v6.81h-6v-6.81l-7.55-14.63h6.82l3.77,8.27,3.77-8.27h6.73l-7.55,14.63ZM117.42,32.02h-5.96l-7.94-11.98v11.98h-5.96V10.58h5.96l7.94,12.13v-12.13h5.96v21.44ZM140.64,26.89c-.97,1.67-2.3,2.98-3.99,3.92-1.68.94-3.53,1.41-5.54,1.41s-3.86-.47-5.54-1.41c-1.68-.94-3.02-2.25-4-3.92-.98-1.67-1.48-3.56-1.48-5.67s.49-4,1.48-5.67c.98-1.67,2.32-2.97,4-3.91,1.68-.93,3.53-1.4,5.54-1.4s3.88.47,5.55,1.4c1.67.93,3,2.24,3.97,3.91.97,1.67,1.46,3.56,1.46,5.67s-.49,4-1.46,5.67ZM169.73,32.02h-7.33l-2.95-13.14-3.01,13.14h-7.33l-5.2-21.44h6.45l2.5,14.66,3.38-14.66h6.54l3.29,14.54,2.5-14.54h6.45l-5.26,21.44Z"/>
    </g>
  </g>
</svg>