<?xml version="1.0" encoding="UTF-8"?>
<svg id="Layer_2" data-name="Layer 2" xmlns="http://www.w3.org/2000/svg" viewBox="0 0 297.03 78.97">
  <defs>
    <style>
      .cls-1 {
        fill: #363636;
        stroke-width: 0px;
      }
    </style>
  </defs>
  <g id="Export">
    <g>
      <path class="cls-1" d="M92.43,52.94c-1.82-2.73-3.61-5.43-5.42-8.15.63-.37,1.09-.63,1.54-.91,4.5-2.86,6.42-6.98,6.36-11.93,0-.51-.03-1.03-.08-1.56-.46-5.15-3.07-8.83-7.72-10.68-.31-.12-.63-.24-.96-.35-.31-.1-.63-.2-.95-.29-.32-.09-.64-.18-.96-.27-.65-.17-1.3-.32-1.96-.44-.33-.06-.66-.12-.99-.17-.99-.16-1.99-.27-2.97-.32-1.8-.09-3.61-.12-5.42-.13-3.01-.01-6.03.04-9.04-.03-.89-.02-1.44.09-1.75.48-.17.22-.27.53-.31.96-.02.17-.02.36-.02.57.02,3.31.03,6.61.04,9.92.01,6.61.01,13.23,0,19.84,0,3.31,0,6.61,0,9.92,0,.14,0,.29,0,.43,0,.15.01.3.02.45.02.31.04.64.06,1.01,1.67,0,3.3-.01,4.92-.02,1.62,0,3.22,0,4.81.04,1.24.03,1.54-.41,1.52-1.58-.03-2.33-.03-4.66-.03-6.99,0-2.33.01-4.66.01-6.99,0-.49.04-.98.07-1.77,0-.11.01-.23.02-.36.57.8.89,1.21,1.17,1.65,1.19,1.86,2.38,3.72,3.56,5.58,1.98,3.1,3.96,6.21,5.96,9.29.1.15.22.31.36.46.08.09.17.18.27.25.25.21.52.36.76.36,2.03.04,4.06.05,6.15.06,2.09,0,4.24,0,6.5,0-.47-.71-.94-1.42-1.41-2.12-1.4-2.11-2.78-4.18-4.14-6.22ZM80.1,39.19c-2.13.66-4.44.74-6.96,1.12,0-1.5,0-2.49,0-3.49,0-2.78,0-5.55,0-8.33,0-.71-.06-1.49,1-1.41,1.85.14,3.76.09,5.54.54,2.5.62,3.82,2.61,3.94,5.23.15,3.19-.97,5.56-3.52,6.35Z"/>
      <path class="cls-1" d="M49.66,17.77c-.77,0-1.55-.03-2.32-.06-.2,0-.38,0-.55,0-.16.01-.31.03-.44.07-.77.2-.95.81-.95,1.93.05,13.23.03,26.45.04,39.68,0,.57.05,1.15.09,1.81h11.19V17.74c-1.2,0-2.38.01-3.56.02-1.18,0-2.34.02-3.5,0Z"/>
      <path class="cls-1" d="M11.96,35.7c.51-1.69,1.39-3.28,2.61-4.62.14-.15.27-.29.41-.43.14-.14.28-.27.43-.41,1.3-1.18,2.78-1.99,4.41-2.45.72-.2,1.48-.34,2.26-.4.2-.02.39-.03.59-.03,4.82-.17,8.33,2.21,10.94,6.17,3.05-2,5.91-3.87,8.83-5.78-1.81-3.43-4.74-6.17-8.25-8.03-5.14-2.73-11.54-3.58-17.54-1.97-5.56,1.5-10.02,4.73-12.92,9.08-.34.51-.66,1.04-.96,1.58-.15.27-.29.54-.43.82-.27.55-.53,1.12-.75,1.7-.23.58-.43,1.17-.61,1.78C.34,34.81,0,37.08,0,39.44c0,.34,0,.68.02,1.02.39,10.57,7.78,19.19,18.03,21.15,6.34,1.22,12.13-.09,16.59-2.68.5-.29.97-.59,1.44-.91,2.77-1.91,4.91-4.32,6.18-6.88-1.63-1.06-3.26-2.12-4.92-3.21-1.19-.77-2.39-1.55-3.62-2.35-.82,1.19-1.72,2.24-2.73,3.12-.34.29-.68.56-1.04.82-.72.51-1.49.93-2.31,1.26-.21.08-.41.16-.63.23-.64.21-1.31.38-2.01.48-3.81.57-7.24-.42-10.03-3.18-2.3-2.27-3.48-5.39-3.55-8.53-.02-.98.07-1.97.27-2.93.08-.38.18-.77.29-1.14Z"/>
      <path class="cls-1" d="M153.57,17.84h-11.31v43.35h26.33v-9.98h-15.02V17.84Z"/>
      <path class="cls-1" d="M172.29,17.86v43.33h28.48v-9.95h-17.26c0-1.17.03-2.27.03-3.35,0-.65-.02-1.28-.06-1.92,0-.09,0-.18-.01-.26-.02-1.16.38-1.63,1.59-1.66.09,0,.18,0,.27,0,4.23.1,8.46.04,12.69.03.62,0,1.24-.06,2.01-.09,0-.47,0-.94,0-1.4-.01-1.08-.03-2.13-.03-3.17,0-.89.02-1.77.08-2.65,0-.1.01-.2.01-.3,0-.19,0-.36-.02-.51-.05-.38-.17-.66-.37-.85-.32-.31-.86-.41-1.67-.39-1.63.04-3.25.05-4.88.06-2.71,0-5.42-.02-8.13-.03-.61,0-1.39.2-1.48-.71,0-.06,0-.13,0-.2,0-.74,0-1.47,0-2.22,0-1.25,0-2.52,0-3.88h2.08c4.6,0,9.21.02,13.81-.04.13,0,.3-.04.47-.11.06-.02.11-.04.17-.07.26-.12.51-.29.64-.44.05-.06.09-.13.09-.18.05-1.49.07-2.98.07-4.49s0-3.02,0-4.56h-28.56Z"/>
      <path class="cls-1" d="M286.32,11.95c-14.95-15.61-41.05-15.98-56.64-.77-15.21,14.84-15.4,41.13-.3,56.31,7.71,7.76,17.22,11.39,28.1,11.47,7.65.05,14.78-1.81,21.46-5.97-8.2-10.6-16.28-21.02-24.35-31.45-.14.04-.27.08-.41.12v19.42h-13.59V17.99h13.67v19.74c.64-.82,1-1.25,1.33-1.71,3.05-4.27,6.09-8.55,9.15-12.82,1.25-1.74,2.17-4.14,3.87-5.01,1.76-.89,4.28-.31,6.46-.32,2.92-.02,5.84,0,9.05,0-.52.74-.84,1.21-1.18,1.67-4.42,5.99-8.81,12-13.27,17.96-.69.92-.63,1.5.06,2.35,4.33,5.39,8.6,10.81,12.9,16.23,2.03,2.56,4.05,5.11,6.16,7.79,10.38-12.21,12.45-36.35-2.46-51.92Z"/>
      <path class="cls-1" d="M119.5,27.36c.61-.03,1.2-.02,1.78.03,3.14.27,5.67,1.75,7.75,4.05.57.63,1.1,1.32,1.61,2.06,3.04-2,5.93-3.89,8.79-5.77-4.17-8.24-15.46-12.64-25.48-10.1-2.63.67-5.03,1.73-7.13,3.12-1.31.87-2.52,1.86-3.59,2.97-.43.44-.84.9-1.23,1.38-1.76,2.15-3.09,4.64-3.93,7.38-.66,2.13-1.02,4.41-1.05,6.79,0,.34,0,.68,0,1.03.24,9.21,5.87,17.02,14.16,20.21.3.11.6.22.9.32.91.31,1.85.56,2.81.75,2.4.48,4.73.6,6.95.41.63-.05,1.26-.13,1.88-.23,1.54-.25,3.02-.64,4.41-1.16.28-.1.56-.21.83-.33,4.63-1.93,8.3-5.24,10.32-9.12-2.1-1.36-4.2-2.73-6.33-4.11-.71-.46-1.42-.92-2.14-1.39-3.14,3.36-6.41,5.31-9.56,5.84-.59.1-1.18.15-1.76.15-2.51,0-4.91-.96-7.06-2.87-2.6-2.31-3.97-5.66-4.02-9.05-.05-2.99.92-6.01,2.95-8.38,2.14-2.5,4.9-3.8,8.14-3.97Z"/>
    </g>
  </g>
</svg>