<?xml version="1.0" encoding="UTF-8"?>
<svg id="Layer_2" data-name="Layer 2" xmlns="http://www.w3.org/2000/svg" viewBox="0 0 47.81 47.84">
  <defs>
    <style>
      .cls-1 {
        fill: #fff;
        stroke-width: 0px;
      }
    </style>
  </defs>
  <g id="Export">
    <path class="cls-1" d="M28.54,47.84v-17.19h4.67c.36-2.26.71-4.46,1.07-6.74h-7.1c0-.5,0-.93,0-1.36,0-1.1-.01-2.21,0-3.31.03-1.91,1.18-3.21,3.09-3.38,1.06-.09,2.14-.06,3.21-.08.57,0,1.14,0,1.74,0,.02-.15.05-.28.05-.41,0-1.69,0-3.38,0-5.07,0-.27-.04-.44-.36-.48-2.18-.26-4.35-.54-6.55-.33-4.55.45-7.5,3.37-7.86,7.93-.15,1.91-.07,3.85-.1,5.77,0,.21,0,.43,0,.69h-5.35v6.76h5.32v17.12C11.09,46.71.35,38.41,0,24.5-.32,11.11,10.44.17,23.69,0c13.2-.16,24.27,10.8,24.12,24.11-.08,6.85-2.54,12.73-7.52,17.49-3.32,3.17-7.21,5.27-11.75,6.23Z"/>
  </g>
</svg>