<?xml version="1.0" encoding="UTF-8"?>
<svg id="Layer_2" data-name="Layer 2" xmlns="http://www.w3.org/2000/svg" xmlns:xlink="http://www.w3.org/1999/xlink" viewBox="0 0 95.77 87.16">
  <defs>
    <style>
      .cls-1 {
        fill: #c68fee;
      }

      .cls-1, .cls-2, .cls-3, .cls-4, .cls-5, .cls-6 {
        stroke-width: 0px;
      }

      .cls-2 {
        fill: none;
      }

      .cls-3 {
        fill: #721aae;
      }

      .cls-4 {
        fill: #48106d;
      }

      .cls-7 {
        clip-path: url(#clippath);
      }

      .cls-5 {
        fill: #a44ce1;
      }

      .cls-6 {
        fill: #a480a5;
      }
    </style>
    <clipPath id="clippath">
      <polygon class="cls-2" points="61.47 0 95.77 42.92 34.29 87.16 0 44.24 61.47 0"/>
    </clipPath>
  </defs>
  <g id="Layer_1-2" data-name="Layer 1">
    <g class="cls-7">
      <g id="Group_236" data-name="Group 236">
        <path id="Path_1022" data-name="Path 1022" class="cls-1" d="M78.78,21.76c-4.2-2.5-10.19-3.16-14.4-.78.02-.5.01-.98-.01-1.44-.2-3.4-1.82-6.49-3.52-9.41-.39-.66-1.53-.85-1.99-.1-1.03,1.71-3.46,2.14-5.04,3.31-1.57,1.17-2.79,2.71-3.54,4.45-.3.72-.51,1.47-.64,2.24-.47-.39-.93-.76-1.35-1.08-2.72-2.1-5.96-3.5-9.53-2.5-.51.14-.94.61-.8,1.15.12.55.38,1.07.75,1.52.9,1.15,1.48,1.94,1.97,3.34.58,1.66,1.35,3.17,2.53,4.53,1.87,2.15,4.82,4.07,7.89,4.19-.05.05-.1.08-.15.13-.08.07-.1.17-.05.26.92,1.37,2.14.74,3.54.45,3.86-.81,5.67,2.06,8.23,4.12,3.77,3.02,8.87,4.19,13.74,3.26.85-.16,1.14-1,.86-1.68-.93-2.32-2.48-5.67-4.86-7.43.91-.27,1.76-.68,2.54-1.21,1.99-1.4,1.98-4.12,3.96-5.43.67-.44.5-1.51-.12-1.88"/>
        <path id="Path_1023" data-name="Path 1023" class="cls-5" d="M47.58,24.62c-.26-.39-.56-.76-.85-1.13-.4-.52-.83-1.03-1.27-1.53.07-.15.11-.31.15-.47.05-.25.09-.51.1-.77.03-.3.02-.6-.02-.89-.02-.14-.05-.28-.09-.42-.03-.08-.06-.15-.11-.21-.03-.04-.07-.08-.12-.1-.09-.02-.11-.03-.05-.02-.06-.1-.2-.05-.24.04-.05.03-.1.08-.13.13-.04.07-.06.15-.07.23-.02.12-.02.25-.04.38-.03.27-.04.54-.08.82-.02.13-.05.27-.08.4-.58-.63-1.17-1.25-1.79-1.84-.19-.19-1.52-1.56-1.8-1.11-.17.27.16.58.32.78.27.33.55.65.83.97.06.07.13.15.19.22-.24-.04-.48-.08-.72-.09-.54-.04-1.11-.04-1.63.13-.24.08-.18.39.04.44.48.11.98.14,1.47.21.24.04.47.08.71.13.26.05.58.17.85.07,0,0,.02-.01.03-.02.23.27.47.54.7.81.53.64,1.04,1.3,1.55,1.96.26.34.52.68.77,1.02.11.15.23.31.34.47.05.07.09.15.12.23.02.04.05.09.07.13h0s.04.09.07.13c.12.21.46.23.65.11.49-.32.41-.78.13-1.21"/>
        <path id="Path_1024" data-name="Path 1024" class="cls-5" d="M62.48,20.43c-.05.02-.08,0-.13,0-.05,0-.1.02-.15.03.06,0-.06,0-.06,0-.06.01-.12.03-.17.05-.2.07-.39.13-.59.21-.41.16-.82.35-1.23.51-.4.16-.82.27-1.23.41.6-1.43,1.18-2.91,1.37-4.44.09-.82.06-1.64-.11-2.45-.13-.64-.23-1.45-.79-1.88-.03-.02-.07-.02-.09,0,0,0,0,0,0,.01-.23.45-.13.92-.1,1.4.07.68.06,1.36-.01,2.03-.07.52-.19,1.03-.35,1.53-.1-.5-.26-.98-.47-1.45-.16-.34-.35-.67-.57-.98-.12-.16-.25-.32-.4-.46-.06-.06-.12-.12-.19-.17-.03-.03-.07-.06-.1-.08-.04-.02-.14,0-.16-.02-.09-.06-.24.02-.19.12.02.04-.03.14,0,.2.03.07.06.13.09.2.07.15.14.3.22.46.15.29.28.6.4.91.22.6.38,1.22.47,1.84.04.22.13.72.42.81-.13.32-.27.64-.42.96-.54,1.2-1.11,2.4-1.72,3.58-.03.06-.06.11-.09.17-.2-.22-.38-.46-.54-.72-.32-.53-.57-1.11-.83-1.66-.34-.73-.68-1.46-1.03-2.19-.28-.58-.57-1.4-1.16-1.75-.03-.01-.07,0-.09.03,0,0,0,0,0,.01-.16.59.18,1.31.36,1.87.21.65.46,1.3.69,1.94.43,1.2.85,2.44,1.73,3.42.07.08.15.16.23.23-.07.13-.14.26-.21.4-.12.23-.46,1.38-.81,1.24-.09-.04-.21,0-.25.09-.01.03-.02.06-.02.09.21,1.14,1.67.41,2.09-.19.89-1.27,1.58-2.7,2.2-4.11.24,0,.48-.02.72-.08.46-.11.9-.26,1.33-.45.44-.17.85-.38,1.23-.64.19-.14.37-.3.54-.46.06-.07.12-.14.16-.22-.02.03.06-.07.07-.09.02-.05.01-.1.05-.14.03-.04.03-.1-.01-.13-.03-.02-.06-.03-.09-.02"/>
        <path id="Path_1025" data-name="Path 1025" class="cls-5" d="M75.86,23.68c-.68-.36-1.24-.34-2.01-.19s-1.54.36-2.3.58c-.09.03-.18.06-.27.08.09-.16.17-.33.26-.49.1-.19.2-.37.3-.55.06-.1.11-.2.15-.3.02-.04.03-.09.05-.13.04-.07.05-.15.04-.22,0,.04,0,.03,0-.02h0c.02-.08,0-.15-.03-.22-.09-.16-.3-.23-.48-.14-.02,0-.05.01-.09.02-.05.02-.1.04-.14.08-.04.03-.08.06-.11.09-.11.09-.21.19-.3.3-.16.19-.32.4-.46.61-.13.18-.24.37-.35.56-.14.22-.25.47-.32.72,0,.06-.01.12,0,.18-.95.33-1.88.7-2.8,1.12-.79.36-1.55.75-2.31,1.16.11-.35.21-.7.31-1.06.11-.38.21-.77.32-1.15.1-.36.25-.74.14-1.11-.15-.52-.98-.32-.97.19-.01.03-.02.05-.03.08-.04.11-.08.22-.11.33-.05.16-.1.33-.16.49-.11.35-.23.71-.34,1.06-.11.35-.22.71-.32,1.06-.08.27-.23.59-.19.88-.14.09-.29.16-.43.25-.98.61-2.98,1.61-2.99,2.9,0,.07.06.13.14.14.59.09,1.23-.27,1.7-.57.65-.4,1.25-.86,1.9-1.26.79-.5,1.61-.95,2.44-1.39.02.11.09.21.19.27.34.19.79.27,1.17.36.39.1.78.18,1.17.28.38.1.77.23,1.16.3.2.02.41,0,.61-.04.17-.02.32-.14.37-.3.05-.19-.08-.31-.2-.43-.09-.11-.2-.2-.32-.28-.1-.05-.2-.08-.31-.11-.38-.11-.77-.21-1.16-.29-.39-.08-.79-.14-1.19-.18-.19-.01-.38-.03-.57-.03.24-.12.47-.24.72-.35,1.36-.61,2.76-1.15,4.19-1.6.12-.04.24-.07.36-.1.02.03.05.06.07.08.12.13.25.25.39.36.15.11.31.21.48.3.17.1.36.15.56.15.12.02.25.02.37,0,.03,0,.05,0,.07,0,.12-.01.21-.11.2-.23,0-.03-.02-.07-.04-.1l-.06-.07c-.04-.07-.08-.13-.14-.18.02.02.02.02-.01-.01.03.07.02.05-.03-.06-.04-.05-.08-.09-.13-.13-.09-.08-.19-.15-.3-.21-.04-.02-.07-.04-.11-.07l-.05-.03c-.05-.03-.11-.06-.17-.09.25-.07.51-.14.76-.2.74-.2,1.26-.4,1.75-.95.03-.03.02-.08,0-.11,0,0-.01,0-.02,0"/>
        <path id="Path_1026" data-name="Path 1026" class="cls-5" d="M75.07,36.59c.08-.03.15-.08.21-.14.1-.06.16-.17.16-.28-.02-.13-.12-.23-.25-.26-.03-.02-.05-.03-.08-.04-.06-.02-.13-.03-.2-.04,0,0-.02,0-.03,0h0s0,0,0,0c-.06-.02-.12-.02-.18-.02-.03,0-.07,0-.1,0,0,0,0,0-.03,0-.03,0-.06,0-.08,0-.03,0-.06,0-.09,0-.21-.19-.43-.37-.62-.53-.56-.43-1.16-.81-1.8-1.11.26-.05.52-.12.77-.22.26-.09.39-.36.3-.6-.06-.16-.2-.27-.38-.3-.59-.11-1.22.06-1.79.22-.22.06-.44.13-.65.21-.68-.22-1.37-.38-2.09-.47-.87-.1-2.29-.33-2.93.41-.15.17-.13.41.04.55.66.53,1.8.32,2.61.43.92.11,1.81.32,2.67.64.25.1.49.2.72.31-.05.09-.08.18-.08.28-.02.15-.02.3,0,.44.05.29.12.58.21.86.09.25.19.5.3.74.07.15.15.29.23.43.1.15.22.33.4.39.24.1.53,0,.64-.23.02-.03.03-.06.03-.1.07-.28-.13-.62-.26-.86-.12-.24-.24-.48-.34-.72-.1-.24-.21-.47-.31-.71-.02-.05-.05-.09-.07-.13.29.17.58.34.86.53.69.46,1.37,1.24,2.22,1.37.11.02.21-.05.22-.16,0-.01,0-.03,0-.04,0-.29-.08-.58-.24-.83"/>
        <path id="Path_1027" data-name="Path 1027" class="cls-3" d="M71.03,46.36c2.21-2.87,2.36-7.11.18-9.97-1.87-2.45-4.97-3.58-8.02-3.31.3-3.01-1.22-6.16-4.01-7.71-2.81-1.56-6.28-1.17-8.89.49-.57-.93-1.46-1.65-2.53-2.04-1.79-.63-3.71-.3-5.09.78-2.78-2.3-7.32-2.49-10.54-.69-3.54,1.99-5.22,6.31-4.24,9.99-4.95,3.16-6.12,10.07-3.04,14.67-2.17,1.32-3.77,3.52-4.01,5.95-.25,2.57.78,5.09,2.79,6.8-2.47,4-2.98,9.66.57,13.09,1.96,1.89,4.99,2.13,7.59,1.41,2-.56,3.74-1.78,5.26-3.15,2.21,1.81,5.28,2.59,8.22,1.93,2.8-.63,5.14-2.58,6.33-5.02,2.8.99,6.08.71,8.57-1.05,2.55-1.8,3.86-4.81,3.61-7.71,3.13-.51,5.95-2.28,7.51-5.02,1.66-2.91,1.5-6.64-.26-9.44"/>
        <path id="Path_1028" data-name="Path 1028" class="cls-4" d="M66.64,45.52c-2.39-.88-4.95-1.75-5.97-4.23-.99-2.4.8-4.21.65-6.52-.01-.15-.13-.27-.28-.3-.27-.3-.71-.42-1.11-.3-1.01.26-1.8.89-2.83,1.14-1.41.35-2.91.12-4.12-.63-2-1.28-2.92-4.05-1.72-6.16.48-.84-.65-1.69-1.44-1.16-2.32,1.55-1.52,5.17-.05,7.45-1.32.02-2.15.93-2.66,2.03-.1-.24-.35-.4-.62-.4-1.85-.08-3.5-.6-4.44-2.2-1.24-2.12-1.05-4.75.7-6.59.72-.76-.43-2.03-1.27-1.33-2.93,2.45-3.47,6.29-1.72,9.52.1.18.22.36.34.53-.97-.07-1.98.23-3.06.27-2.36.09-4.14-.63-5.78-2.18-.62-.58-1.76.18-1.42.93.92,1.98,2.91,3.24,5.14,3.67.13.02.26.05.41.07-2.77,2.31-3.75,6.62-2.45,9.69-.12.01-.23.02-.33.04-1.11.16-2.25.17-3.36.03-.83-.1-1.77-.47-2.57-.09-.12.05-.2.16-.19.28.04,1.93,4.04,3.04,6.61,2.52-.63,1.04-.83,2.48-.89,3.49-.12,1.93.37,4.13,1.62,5.7-1.22.37-2.26,1.02-3.62,1.11-1.7.11-2.94-.71-4.53-.94-.78-.11-1.22.67-.87,1.27,1.39,2.34,5.51,2.96,8.39,1.89-.03.68,0,1.35.1,2.02.29,1.94,1.17,4.39,3.33,4.96.44.12.95-.12,1.24-.42.33-.33.5-.78.45-1.23-.02-.17-.18-.3-.36-.29-.24.03-1.01-1.09-1.13-1.27-.49-.75-.82-1.59-.98-2.47-.17-.92.11-1.93.15-2.88,2.47,1.37,6,1.94,7.81.26.5-.06.98-.22,1.41-.47.31-.21.49-.56.46-.92,0-.42-.33-.77-.77-.83,0-.02,0-.03.01-.05.03-.15-.08-.29-.24-.31-.07,0-.14,0-.2.04-1.14.68-3.65.44-4.86.14-1.62-.4-3.11-1.08-3.88-2.54-.68-1.31-.86-2.89-.63-4.34.11-.68.37-1.27.41-1.88.92.45,1.95.69,2.99.69.75.01,1.33-.24,1.7-.6.13.28.27.56.44.85,1.31,2.24,3.15,3.89,5.93,3.75-.34,1.45-.25,3.21-.11,4.12.35,2.25,1.73,5.76,4.58,5.69,1.16-.03,1.57-1.54.76-2.19-1.64-1.32-2.56-3.03-2.84-5.07-.12-.97-.08-1.95.14-2.91,0-.02,0-.03.01-.05,1.87-.45,3.85-1.26,4.99-2.53.39.95.96,1.79,1.61,2.37,1.15,1.01,3.02,1.69,4.59,1.49.49,1.24,1.36,2.07,2.64,2.02.52-.02.86-.51.85-.96-.03-1.14-.59-2.2-.87-3.33,0-.01.01-.03.01-.04.02-.09,0-.18-.08-.23-.04-.2-.07-.39-.08-.59-.14-1.72.34-3.44,1.37-4.88.2-.3.24-.67.13-1.01.59.14,1.2.15,1.8.03,1.31-.29,2.13-2.18.55-2.76M52.9,51.07c-1.44.52-2.77,1.24-4.24,1.71-.87.28-2.12.76-3.04.57-1.03-.22-1.77-1.27-2.33-2.03-1.37-1.88-1.12-3.72.32-5.55.73-.93,1.85-1.39,2.51-2.36.08-.15.01-.33-.15-.4-2.01-.9-4.06,1.36-5.05,2.83-.9,1.32-1.3,2.51-1.25,3.72-.04-.02-.07-.04-.11-.06-.83-.4-1.87-.37-2.69-.81-1.27-.68-1.66-1.66-1.77-2.99-.21-2.5.94-4.29,2.37-6.3.02-.04.04-.08.06-.12,1.54-.04,3.11-.43,3.86-1.53,1.56,1.31,3.72,2.06,5.23.58-.06.27-.11.53-.15.78-.34,2.19.08,4.5,1.36,6.35,1.08,1.55,3.67,3.11,6.03,3.42-.25.69-.35,1.41-.3,2.14-.22-.04-.44-.02-.65.06M59.82,54.3c-.93-.24-1.8-.61-2.35-1.16-1.27-1.28-1.17-2.88-1.54-4.39,1.03-.31,1.86-1.05,2.25-2.39.04-.19-.09-.37-.29-.4-2.57-.38-5.46.25-7.37-1.8-2.2-2.37-1.87-5.69-.1-8.15.04-.06.08-.13.11-.2.13.14.27.27.42.4,1.46,1.22,4.43,2.05,6.84,1.67-.49,1.57-.43,3.35.12,4.72.7,1.77,2.75,4.11,5.02,5.19-1.97.68-3.08,3.73-3.1,6.52"/>
        <path id="Path_1029" data-name="Path 1029" class="cls-6" d="M29.48,39.98c0,.12-.01.24-.02.36.04-.63-.08-1.19-.61-1.62-.51-.41-1.22-.53-1.86-.31-.64.23-1.19.61-1.45,1.23-.25.6-.44,1.28-.15,1.9.26.54.62.91,1.22,1.09.53.16,1.25.14,1.7-.23.29-.24.57-.45.73-.79.04-.09.08-.19.13-.28.13-.23.23-.35.28-.67.02-.23.03-.45.03-.68"/>
        <path id="Path_1030" data-name="Path 1030" class="cls-6" d="M29.5,44.31c.04-.26-.02-.53-.17-.75-.33-.45-.99-.56-1.47-.24-.23.15-.39.38-.44.65,0,.04,0,.08-.01.12-.04.26.02.53.17.75.33.45.99.56,1.47.24,0,0,0,0,0,0,.23-.15.39-.38.44-.65,0-.04,0-.08.01-.12"/>
        <path id="Path_1031" data-name="Path 1031" class="cls-6" d="M36.44,25.43c-.05-.34-.26-.64-.58-.81-.54-.32-1.38.1-1.69.55-.21.27-.32.59-.31.92.03.36.29.78.65.92.72.29,1.43-.1,1.78-.72.12-.27.17-.57.14-.87"/>
        <path id="Path_1032" data-name="Path 1032" class="cls-6" d="M27.09,54.46c.02.07.08.38.05.14-.13-1-1.24-1.45-2.14-.93-.48.28-.78.77-.81,1.3-.02.28.05.56.18.81.16.28.4.51.69.66.25.15.62.14.89.08.29-.07.55-.21.75-.42.21-.18.38-.58.44-.84.05-.27.03-.54-.05-.8"/>
        <path id="Path_1033" data-name="Path 1033" class="cls-6" d="M45.94,69.54c-.09-.68-.62-1.32-1.37-1.42-.27-.05-.56-.05-.83,0-.26.05-.51.14-.73.28-.76.47-.92,1.5-.43,2.18.5.68,1.44.92,2.25.6.67-.27,1.21-.93,1.12-1.65"/>
        <path id="Path_1034" data-name="Path 1034" class="cls-6" d="M57.57,62.02c-.23-.1-.48-.17-.73-.23-.44-.06-.83.06-1.26.16-.41.09-.9.56-1.06.91-.18.37-.22.77-.13,1.16.19.84,1.05,1.49,1.99,1.38.51-.06.98-.18,1.37-.52.25-.21.45-.47.59-.76.37-.72.08-1.82-.77-2.11"/>
        <path id="Path_1035" data-name="Path 1035" class="cls-6" d="M40.6,55.24l.11.2c-.02-.07-.06-.13-.1-.19h0"/>
        <path id="Path_1036" data-name="Path 1036" class="cls-6" d="M40.76,55.82c.02-.08,0-.16-.02-.24,0-.05-.02-.09-.04-.14-.12-.32-.41-.54-.76-.6-.03,0-.05,0-.08,0-.58-.16-1.25.32-1.18.92.02.2.1.39.21.55.16.22.4.37.68.41.09,0,.18,0,.27,0,.13,0,.26-.05.37-.11.12-.06.23-.13.32-.23.05-.07.09-.13.14-.2.06-.11.09-.24.09-.36"/>
        <path id="Path_1037" data-name="Path 1037" class="cls-6" d="M40.7,55.44h0s0,0,0,0"/>
        <path id="Path_1038" data-name="Path 1038" class="cls-6" d="M39.55,42.74v-.14s.01,0,.01-.03c.05-.15.05-.31,0-.46v-.02c.04-.19-.06-.39-.25-.47-.37-.18-.82-.16-1.17.06-.46.29-.71.81-.62,1.33.06.38.35.75.77.8.38.05.89-.12,1.03-.5.03-.07.06-.14.08-.21,0,0,0-.02.02-.04.05-.1.09-.2.12-.31"/>
        <path id="Path_1039" data-name="Path 1039" class="cls-6" d="M47.61,48.36c-.01-.11-.04-.23-.09-.33-.06-.15-.13-.29-.21-.43-.28-.38-.78-.55-1.26-.45-.2.04-.39.14-.55.27-.09.06-.16.14-.2.23-.1.12-.17.27-.19.42-.05.23-.03.48.06.7.05.13.12.26.2.38.14.24.51.43.79.48.32.05.65-.02.92-.2.27-.18.46-.45.52-.75l.02-.31Z"/>
        <path id="Path_1040" data-name="Path 1040" class="cls-6" d="M54.06,40.99c.02-.1.01-.2-.02-.3-.02-.15-.08-.29-.18-.41-.13-.18-.31-.33-.52-.43-.22-.09-.46-.12-.7-.11-.1.02-.2.04-.31.07-.15.05-.28.13-.39.23-.09.06-.16.13-.2.22-.1.12-.17.26-.19.42-.01.11-.02.22-.02.34.02.21.09.41.22.58.2.27.51.45.86.49.11,0,.22,0,.33.01.1-.02.21-.05.31-.07.09-.05.19-.09.28-.14.13-.08.25-.19.32-.33.07-.08.12-.17.14-.28.05-.09.07-.2.06-.3"/>
        <path id="Path_1041" data-name="Path 1041" class="cls-6" d="M69.35,54.91c.11-.51.02-1.03-.23-1.48-.28-.52-.81-.88-1.42-.97-.55-.08-1.11.11-1.48.51-.2.22-.32.49-.35.78-.09.17-.15.35-.19.54-.04.22-.04.45-.02.68.04.32.14.72.37.96.1.11.21.22.31.33.18.15.39.26.63.31.38.13.8.12,1.18-.01.29-.11.55-.29.76-.5.31-.31.4-.71.43-1.12"/>
        <path id="Path_1042" data-name="Path 1042" class="cls-6" d="M68.97,51.22c.08-.04.16-.09.23-.14.33-.28.48-.86.16-1.21-.14-.17-.31-.31-.51-.41-.21-.09-.45-.14-.69-.12-.31.02-.61.12-.87.28-.35.21-.59.55-.67.93-.1.47.07.95.45,1.27.45.35,1.13.3,1.53-.12h0c.08-.07.15-.15.2-.24.07-.07.13-.15.18-.24"/>
        <path id="Path_1043" data-name="Path 1043" class="cls-6" d="M69.13,37.4c-.07-.17-.17-.34-.28-.49-.37-.51-1.03-.75-1.67-.62-.61.13-1.09.54-1.19,1.12v-.03s0,.03,0,.04c-.05.2-.05.42,0,.62.03.21.12.4.25.57.02.03.04.05.06.08.15.25.38.45.65.58.38.17.82.18,1.22.05.39-.14.7-.41.88-.76.16-.36.23-.79.07-1.15"/>
        <path id="Path_1044" data-name="Path 1044" class="cls-6" d="M58.92,28.99c0-.24-.1-.47-.26-.65-.22-.27-.54-.46-.89-.53-.66-.16-1.31.16-1.48.81-.23.91,1,1.84,1.9,1.45.5-.22.72-.58.73-1.08"/>
        <path id="Path_1045" data-name="Path 1045" class="cls-6" d="M46.99,27.58c0-.07,0-.15,0-.22-.01-.08-.03-.16-.05-.24.03.09.04.09.03.01,0-.28-.35-.55-.64-.5-.29.04-.57.14-.83.28-.38.22-.63.59-.67,1.01-.1.53.27,1.03.83,1.11.45.07.89-.15,1.1-.54.1-.14.18-.3.22-.46.02-.15.02-.29,0-.44"/>
      </g>
    </g>
  </g>
</svg>