<?xml version="1.0" encoding="UTF-8"?>
<svg id="Layer_2" data-name="Layer 2" xmlns="http://www.w3.org/2000/svg" viewBox="0 0 244.13 40.37">
  <defs>
    <style>
      .cls-1 {
        fill: #fec007;
        stroke-width: 0px;
      }
    </style>
  </defs>
  <g id="Export">
    <g>
      <path class="cls-1" d="M21.05,0c1.06.04,1.74.57,2.13,1.49.58,1.35,1.15,2.7,1.73,4.05.96,2.24,1.92,4.48,2.87,6.73.1.24.22.35.49.37,2.87.25,5.74.5,8.61.76,1.08.1,2.16.2,3.24.32.94.11,1.58.64,1.88,1.52.3.88.1,1.69-.59,2.31-1.52,1.38-3.08,2.72-4.62,4.08-1.45,1.27-2.89,2.54-4.35,3.8-.21.18-.26.35-.2.63.86,3.75,1.7,7.51,2.56,11.26.19.81.15,1.56-.39,2.23-.74.9-1.91,1.07-2.98.44-1.94-1.15-3.87-2.32-5.8-3.47-1.42-.85-2.85-1.69-4.26-2.55-.24-.15-.41-.14-.65,0-3.29,1.98-6.59,3.94-9.88,5.92-.55.33-1.12.56-1.78.45-1.28-.21-2.11-1.4-1.83-2.68.63-2.85,1.29-5.7,1.93-8.55.23-1,.43-2.01.69-3,.08-.33-.01-.52-.25-.73-2.89-2.52-5.78-5.06-8.66-7.58-.35-.3-.65-.64-.81-1.08-.49-1.36.38-2.82,1.82-2.98,1.45-.16,2.9-.28,4.34-.42,2.53-.23,5.06-.47,7.59-.67.33-.03.39-.23.48-.45,1.54-3.59,3.07-7.18,4.62-10.78.39-.92,1.1-1.39,2.07-1.42Z"/>
      <path class="cls-1" d="M71.55,0c1.06.04,1.74.57,2.13,1.49.58,1.35,1.15,2.7,1.73,4.05.96,2.24,1.92,4.48,2.87,6.73.1.24.22.35.49.37,2.87.25,5.74.5,8.61.76,1.08.1,2.16.2,3.24.32.94.11,1.58.64,1.88,1.52.3.88.1,1.69-.59,2.31-1.52,1.38-3.08,2.72-4.62,4.08-1.45,1.27-2.89,2.54-4.35,3.8-.21.18-.26.35-.2.63.86,3.75,1.7,7.51,2.56,11.26.19.81.15,1.56-.39,2.23-.74.9-1.91,1.07-2.98.44-1.94-1.15-3.87-2.32-5.8-3.47-1.42-.85-2.85-1.69-4.26-2.55-.24-.15-.41-.14-.65,0-3.29,1.98-6.59,3.94-9.88,5.92-.55.33-1.12.56-1.78.45-1.28-.21-2.11-1.4-1.83-2.68.63-2.85,1.29-5.7,1.93-8.55.23-1,.43-2.01.69-3,.08-.33-.01-.52-.25-.73-2.89-2.52-5.78-5.06-8.66-7.58-.35-.3-.65-.64-.81-1.08-.49-1.36.38-2.82,1.82-2.98,1.45-.16,2.9-.28,4.34-.42,2.53-.23,5.06-.47,7.59-.67.33-.03.39-.23.48-.45,1.54-3.59,3.07-7.18,4.62-10.78.39-.92,1.1-1.39,2.07-1.42Z"/>
      <path class="cls-1" d="M122.04,0c1.06.04,1.74.57,2.13,1.49.58,1.35,1.15,2.7,1.73,4.05.96,2.24,1.92,4.48,2.87,6.73.1.24.22.35.49.37,2.87.25,5.74.5,8.61.76,1.08.1,2.16.2,3.24.32.94.11,1.58.64,1.88,1.52.3.88.1,1.69-.59,2.31-1.52,1.38-3.08,2.72-4.62,4.08-1.45,1.27-2.89,2.54-4.35,3.8-.21.18-.26.35-.2.63.86,3.75,1.7,7.51,2.56,11.26.19.81.15,1.56-.39,2.23-.74.9-1.91,1.07-2.98.44-1.94-1.15-3.87-2.32-5.8-3.47-1.42-.85-2.85-1.69-4.26-2.55-.24-.15-.41-.14-.65,0-3.29,1.98-6.59,3.94-9.88,5.92-.55.33-1.12.56-1.78.45-1.28-.21-2.11-1.4-1.83-2.68.63-2.85,1.29-5.7,1.93-8.55.23-1,.43-2.01.69-3,.08-.33-.01-.52-.25-.73-2.89-2.52-5.78-5.06-8.66-7.58-.35-.3-.65-.64-.81-1.08-.49-1.36.38-2.82,1.82-2.98,1.45-.16,2.9-.28,4.34-.42,2.53-.23,5.06-.47,7.59-.67.33-.03.39-.23.48-.45,1.54-3.59,3.07-7.18,4.62-10.78.39-.92,1.1-1.39,2.07-1.42Z"/>
      <path class="cls-1" d="M172.54,0c1.06.04,1.74.57,2.13,1.49.58,1.35,1.15,2.7,1.73,4.05.96,2.24,1.92,4.48,2.87,6.73.1.24.22.35.49.37,2.87.25,5.74.5,8.61.76,1.08.1,2.16.2,3.24.32.94.11,1.58.64,1.88,1.52.3.88.1,1.69-.59,2.31-1.52,1.38-3.08,2.72-4.62,4.08-1.45,1.27-2.89,2.54-4.35,3.8-.21.18-.26.35-.2.63.86,3.75,1.7,7.51,2.56,11.26.19.81.15,1.56-.39,2.23-.74.9-1.91,1.07-2.98.44-1.94-1.15-3.87-2.32-5.8-3.47-1.42-.85-2.85-1.69-4.26-2.55-.24-.15-.41-.14-.65,0-3.29,1.98-6.59,3.94-9.88,5.92-.55.33-1.12.56-1.78.45-1.28-.21-2.11-1.4-1.83-2.68.63-2.85,1.29-5.7,1.93-8.55.23-1,.43-2.01.69-3,.08-.33-.01-.52-.25-.73-2.89-2.52-5.78-5.06-8.66-7.58-.35-.3-.65-.64-.81-1.08-.49-1.36.38-2.82,1.82-2.98,1.45-.16,2.9-.28,4.34-.42,2.53-.23,5.06-.47,7.59-.67.33-.03.39-.23.48-.45,1.54-3.59,3.07-7.18,4.62-10.78.39-.92,1.1-1.39,2.07-1.42Z"/>
      <path class="cls-1" d="M223.04,0c1.06.04,1.74.57,2.13,1.49.58,1.35,1.15,2.7,1.73,4.05.96,2.24,1.92,4.48,2.87,6.73.1.24.22.35.49.37,2.87.25,5.74.5,8.61.76,1.08.1,2.16.2,3.24.32.94.11,1.58.64,1.88,1.52.3.88.1,1.69-.59,2.31-1.52,1.38-3.08,2.72-4.62,4.08-1.45,1.27-2.89,2.54-4.35,3.8-.21.18-.26.35-.2.63.86,3.75,1.7,7.51,2.56,11.26.19.81.15,1.56-.39,2.23-.74.9-1.91,1.07-2.98.44-1.94-1.15-3.87-2.32-5.8-3.47-1.42-.85-2.85-1.69-4.26-2.55-.24-.15-.41-.14-.65,0-3.29,1.98-6.59,3.94-9.88,5.92-.55.33-1.12.56-1.78.45-1.28-.21-2.11-1.4-1.83-2.68.63-2.85,1.29-5.7,1.93-8.55.23-1,.43-2.01.69-3,.08-.33-.01-.52-.25-.73-2.89-2.52-5.78-5.06-8.66-7.58-.35-.3-.65-.64-.81-1.08-.49-1.36.38-2.82,1.82-2.98,1.45-.16,2.9-.28,4.34-.42,2.53-.23,5.06-.47,7.59-.67.33-.03.39-.23.48-.45,1.54-3.59,3.07-7.18,4.62-10.78.39-.92,1.1-1.39,2.07-1.42Z"/>
    </g>
  </g>
</svg>