<?xml version="1.0" encoding="UTF-8"?>
<svg id="Layer_2" data-name="Layer 2" xmlns="http://www.w3.org/2000/svg" viewBox="0 0 149.11 148.85">
  <defs>
    <style>
      .cls-1 {
        fill: #e96000;
        stroke-width: 0px;
      }
    </style>
  </defs>
  <g id="Export">
    <g id="Group_974" data-name="Group 974">
      <path id="Path_2686" data-name="Path 2686" class="cls-1" d="M74.52,148.85C33.38,148.82-.07,115.34,0,74.27.07,33.29,33.62-.08,74.67,0c41.09.08,74.47,33.49,74.44,74.5-.03,40.99-33.53,74.38-74.59,74.35M74.57,79.41c-14.53,0-29.06,0-43.6,0-2.47,0-2.83.32-2.69,2.83.09,2.26.31,4.51.66,6.74,4.41,25.19,28.4,42.04,53.6,37.64,21.75-3.8,37.79-22.44,38.32-44.51.05-2.35-.29-2.69-2.69-2.69h-43.6M33.18,49.52c0,1.24-.04,2.48,0,3.71.17,4.55,3.99,8.1,8.54,7.94,4.27-.16,7.71-3.55,7.93-7.82.09-2.47.09-4.96,0-7.43-.22-4.55-4.08-8.05-8.63-7.84-4.26.21-7.66,3.63-7.84,7.89-.05,1.18,0,2.37,0,3.55M115.93,49.66c0-1.18.03-2.37,0-3.55-.12-4.55-3.91-8.14-8.46-8.02-4.38.12-7.9,3.64-8.02,8.01-.06,2.37-.07,4.74,0,7.11.17,4.55,3.99,8.1,8.54,7.94,4.31-.16,7.77-3.62,7.94-7.93.04-1.18,0-2.37,0-3.55"/>
    </g>
  </g>
</svg>