<?xml version="1.0" encoding="UTF-8"?>
<svg id="Layer_2" data-name="Layer 2" xmlns="http://www.w3.org/2000/svg" viewBox="0 0 138.02 138.18">
  <defs>
    <style>
      .cls-1 {
        fill: #277c10;
      }

      .cls-1, .cls-2 {
        stroke-width: 0px;
      }

      .cls-2 {
        fill: #329b13;
      }
    </style>
  </defs>
  <g id="Export">
    <g id="Group_970" data-name="Group 970">
      <path id="Path_2679" data-name="Path 2679" class="cls-2" d="M69.04,7.16c9.66-9.58,25.25-9.51,34.82.14,1.57,1.59,2.92,3.38,4.01,5.33,5.25,9.36,3.73,21.07-3.75,28.77-10.6,10.76-21.35,21.37-32.05,32.02-1.45,1.69-3.99,1.89-5.67.44-.16-.13-.3-.28-.43-.43-10.7-10.66-21.52-21.2-32.02-32.06-6.84-7.07-8.69-15.7-5.4-25C31.84,7.1,38.67,1.67,48.44.27c7.49-1.08,14.08,1.14,19.75,6.14.24.22.49.43.85.76"/>
      <path id="Path_2680" data-name="Path 2680" class="cls-1" d="M73.74,133.01c-1.8-1.84-3.33-3.42-4.88-4.98-8.96-8.95-17.92-17.9-26.88-26.84-1.11-1.11-2.31-1.95-3.96-1.73-1.54.14-2.85,1.19-3.33,2.67-.57,1.55-.12,3.28,1.13,4.36,3.68,3.68,7.36,7.36,11.05,11.04,6.41,6.39,12.81,12.79,19.22,19.18.36.36.7.74,1.16,1.22-.24.09-.49.16-.74.2-12.17.33-24.1-.99-35.42-5.71C14.44,125.47,3.98,113.26.79,95.28c-1.69-9.52-.52-18.9,2.27-28.06,1.19-3.75,2.61-7.42,4.26-10.99,1.38-3.07,4.95-3.49,6.98-.84,5.42,7.11,12.69,11.51,20.82,14.81,7.07,2.87,14.18,5.72,20.58,9.99,6.59,4.4,12.46,9.51,16.24,16.63,5.59,10.51,5.92,21.5,2.87,32.77-.28,1.03-.63,2.04-1.05,3.41"/>
      <path id="Path_2681" data-name="Path 2681" class="cls-1" d="M84.73,112.43c-.69-9.66-4.29-18.89-10.33-26.46,3.48-2.44,6.69-5.18,10.32-7.14,5.55-3,11.34-5.59,17.12-8.14,5.6-2.46,11.22-4.84,15.84-8.97,2.01-1.83,3.88-3.8,5.62-5.89,2.66-3.12,5.96-2.87,7.67.81,5.67,12.21,8.51,24.98,6.29,38.42-2.8,17.01-12.44,29-27.95,36.33-7.59,3.58-15.68,5.34-23.98,6.24-1.53.16-3.06.25-4.7.38.78-2.54,1.53-4.9,2.23-7.26.35-.97.59-1.98.71-3,.15-2.46,1.4-4.18,3.13-5.85,5.16-4.98,10.18-10.11,15.27-15.17,1.09-1.08,1.81-2.3,1.56-3.87-.18-1.49-1.21-2.74-2.64-3.2-1.54-.58-3.29-.15-4.38,1.09-3.53,3.5-7.05,7.01-10.56,10.53-.33.32-.67.63-1.22,1.14"/>
    </g>
  </g>
</svg>