<?xml version="1.0" encoding="UTF-8"?>
<svg id="Layer_2" data-name="Layer 2" xmlns="http://www.w3.org/2000/svg" viewBox="0 0 300.01 50.25">
  <defs>
    <style>
      .cls-1 {
        fill: #363636;
        stroke-width: 0px;
      }
    </style>
  </defs>
  <g id="Export">
    <g>
      <path class="cls-1" d="M35.24,49.12c-3.76,0-7.52.05-11.27,0-11.24-.18-21.1-8.36-23.37-19.36-.38-1.82-.56-3.67-.57-5.53C0,16.62.04,9.02,0,1.42,0,.42.23.1,1.28.1c7.13.05,14.25.05,21.38,0,1.03,0,1.2.34,1.19,1.26-.04,4.71-.02,9.41-.02,14.12,0,5.71,4.07,9.79,9.78,9.81,4.75.02,9.5.03,14.25-.01.89,0,1.18.23,1.17,1.15-.04,7.21-.03,14.42,0,21.63,0,.85-.24,1.1-1.09,1.09-4.23-.04-8.47-.02-12.7-.02h0Z"/>
      <path class="cls-1" d="M229.91,37.41c1.02-4.18,2.04-8.36,3.06-12.54.88-3.6,1.77-7.2,2.62-10.81.13-.57.36-.78.95-.77,2.63.03,5.27.06,7.9-.02.99-.03,1,.6,1.15,1.2,1.76,7.07,3.52,14.14,5.28,21.21.13.52.29,1.03.69,1.55.73-2.68,1.46-5.35,2.18-8.03,1.34-4.95,2.7-9.9,3.99-14.86.21-.82.53-1.09,1.38-1.07,2.63.06,5.27.04,7.9.01.77,0,1.08.05.79.98-3.21,10.1-6.37,20.22-9.55,30.34-.39,1.23-.81,2.46-1.15,3.7-.16.59-.41.84-1.06.84-2.81-.03-5.62-.06-8.42,0-.89.02-.95-.51-1.1-1.09-1.83-6.96-3.66-13.92-5.5-20.88-.16-.62-.36-1.23-.66-2.21-1.04,4.1-1.99,7.84-2.93,11.58-.98,3.89-1.95,7.78-2.91,11.67-.15.6-.34.95-1.09.94-2.81-.05-5.61-.04-8.42,0-.7,0-.96-.26-1.16-.89-3.15-10.08-6.34-20.15-9.51-30.22-.4-1.27-.78-2.56-1.2-3.82-.21-.61-.24-.94.59-.93,2.89.04,5.79.04,8.68,0,.69,0,.86.33,1.01.89,1.62,6.08,3.25,12.16,4.89,18.24.45,1.66.9,3.32,1.35,4.98.08,0,.17.01.25.02Z"/>
      <path class="cls-1" d="M294.22,23.75c-.65,0-1.3-.04-1.94,0-1.53.1-2.89.18-3.15-1.98-.13-1.05-1.18-1.78-2.23-2.19-2.29-.88-4.63-.94-6.99-.26-1.26.36-2.15,1.11-2.34,2.47-.21,1.48.54,2.5,1.75,3.19,1.83,1.04,3.88,1.41,5.9,1.85,2.66.58,5.32,1.12,7.88,2.05,7.65,2.78,9.32,12.18,3.09,17.49-2.97,2.53-6.57,3.35-10.32,3.63-4.73.35-9.34-.13-13.49-2.67-3.33-2.04-4.99-5.14-5.39-8.98-.07-.65.06-.92.8-.91,2.55.04,5.1.03,7.65,0,.58,0,.81.13.88.77.26,2.46,1.72,3.97,4,4.74,2.42.81,4.84.82,7.2-.21,1.54-.66,2.5-1.81,2.62-3.55.11-1.7-.94-2.6-2.28-3.27-2.54-1.27-5.31-1.75-8.04-2.38-2.11-.48-4.2-.98-6.2-1.81-5.28-2.2-7.05-6.31-5.1-12.19,1.08-3.25,3.63-5.14,6.78-6.07,5.7-1.68,11.43-1.79,16.99.54,3.81,1.59,5.9,4.62,6.54,8.68.14.89-.13,1.11-.98,1.06-1.21-.07-2.42-.02-3.63-.02Z"/>
      <path class="cls-1" d="M57.19,18.35c0-5.7.02-11.4-.02-17.1,0-.9.22-1.17,1.14-1.15,2.76.06,5.53.08,8.29,0,1.15-.03,1.52.23,1.51,1.46-.05,10.84-.03,21.68-.03,32.52,0,.82-.01,1.64.38,2.4.85,1.65,2.2,2.47,4.07,2.47,5.1-.01,10.19.02,15.29-.02.88,0,1.18.18,1.16,1.12-.07,2.68-.04,5.35-.01,8.03,0,.71-.06,1.08-.95,1.07-5.7-.05-11.41.05-17.11-.06-7.34-.15-13.57-6.42-13.69-13.77-.09-5.66-.02-11.31-.02-16.97,0,0,0,0-.01,0Z"/>
      <path class="cls-1" d="M176.96,24.66c0,7.73-.02,15.46.02,23.19,0,.99-.2,1.34-1.26,1.3-2.42-.09-4.84-.09-7.26,0-1.1.04-1.34-.31-1.34-1.36.04-14.99.02-29.98.02-44.96q0-2.7,2.67-2.7c1.99,0,3.98.06,5.96-.02,1-.04,1.2.29,1.2,1.23-.04,7.77-.02,15.55-.02,23.32Z"/>
      <path class="cls-1" d="M25.27,8.84c0-2.55.03-5.09-.02-7.64-.02-.87.27-1.11,1.11-1.08,1.6.06,3.2.07,4.79,0,.96-.05,1.14.34,1.13,1.2-.04,2.93-.03,5.87-.01,8.8.03,4.27,2.59,6.81,6.87,6.83,2.89,0,5.79.05,8.68-.02,1-.02,1.25.31,1.21,1.25-.07,1.64-.04,3.28-.01,4.92.01.65-.19.91-.88.9-5.14-.03-10.28.07-15.41-.06-4.01-.1-7.32-3.59-7.43-7.59-.07-2.5-.01-5.01-.01-7.51h-.02Z"/>
      <path class="cls-1" d="M33.63,5.95c0-1.6.03-3.2-.02-4.79-.02-.77.19-1.08,1.01-1.05,1.68.06,3.37.05,5.05,0,.72-.02,1,.2.97.95-.05,1.34-.03,2.68,0,4.01.03,2.2,1.25,3.41,3.47,3.44,1.34.02,2.68.03,4.02,0,.67-.02.91.23.9.9-.03,1.77-.03,3.54,0,5.31.01.66-.2.92-.89.91-3.2-.03-6.39.05-9.59-.04-2.92-.08-4.87-2.18-4.91-5.11-.02-1.51,0-3.02,0-4.53Z"/>
      <path class="cls-1" d="M45.81.13c.87.09,2.24-.46,2.93.2.75.72.24,2.12.25,3.22.01,1.15.5,2.64-.2,3.37-.71.74-2.21.17-3.36.24-.47.03-.95.02-1.42,0-1.29-.05-1.93-.62-1.98-1.89-.05-1.42,0-2.85-.05-4.27-.02-.68.24-.92.9-.89.9.04,1.81,0,2.92,0Z"/>
      <path class="cls-1" d="M162.11,20.15c-2.27-4.83-6.38-7.57-11.82-7.79-4.63-.18-8.66,1.3-11.82,5.42,0-.82,0-1.24,0-1.66,0-4.88-.05-9.76.04-14.64.02-1.2-.36-1.42-1.45-1.38-2.33.08-4.67.09-7,0-1.07-.04-1.36.24-1.36,1.33.04,15.46.03,30.92.03,46.38,0,.17.02.35,0,.52-.07.61.16.82.79.81,2.55-.03,5.1-.03,7.65,0,.69,0,.9-.23.88-.9-.04-1.13-.01-2.27-.01-3.77.96,1.39,1.75,2.38,2.8,3.15,6.49,4.79,16.64,2.82,20.7-4.36,4.25-7.51,4.2-15.41.58-23.12ZM153.4,38.13c-1.34,2.72-3.4,4.4-6.53,4.54-3.29.15-5.77-1.31-7.12-4.21-2.3-4.96-2.32-10.04.27-14.94,1.39-2.63,3.74-3.86,6.72-3.77,3.01.09,5.11,1.62,6.49,4.21,1.2,2.27,1.53,4.73,1.61,7.29-.07,2.35-.36,4.69-1.44,6.87Z"/>
      <path class="cls-1" d="M213.74,48.46c-.82-2.45-.95-4.99-.95-7.54,0-6.13,0-12.26-.01-18.39-.01-4.26-1.94-7.18-5.93-8.64-5.78-2.12-11.7-2.16-17.55-.43-4.84,1.43-8.03,4.55-8.74,9.81-.11.81-.01,1.05.84,1.04,2.63-.05,5.27-.04,7.9,0,.7.01.96-.2,1.07-.9.28-1.71,1.12-3.12,2.77-3.8,2.5-1.03,5.06-.99,7.58-.04,1.57.59,2.39,2.21,2.33,4.25-.04,1.49-.86,2.54-2.47,3.12-1.38.5-2.83.75-4.29.94-3.38.42-6.78.7-10.05,1.78-6.97,2.32-9.35,11.31-4.42,16.8,2.32,2.58,5.41,3.47,8.73,3.62,4.77.21,9.16-.89,12.8-4.25.21.93.43,1.76.59,2.6.1.5.33.72.87.72,2.81-.02,5.61-.02,8.42,0,.53,0,.68-.13.49-.67ZM202.45,38.47c-.63,2.31-2.04,3.87-4.32,4.59-2.07.65-4.16.66-6.25.06-1.65-.48-2.66-1.58-2.89-3.3-.24-1.81.11-3.46,1.69-4.61,1.4-1.02,3.05-1.39,4.71-1.65,2.5-.4,5.06-.5,7.48-1.85-.03,2.39.16,4.6-.43,6.76Z"/>
      <path class="cls-1" d="M122.12,18.6c-4.67-5.76-11.01-7.05-17.98-6.15-3.49.45-6.65,1.84-9.25,4.29-4.11,3.86-5.59,8.78-5.61,11.63-.03,12.51,5.07,19.34,14.11,21.12,6.11,1.21,11.9.27,16.79-3.93,3.94-3.39,5.54-7.92,5.85-12.96.31-5.1-.61-9.94-3.9-14ZM114.51,38.85c-1.64,2.73-4.17,3.78-7.22,3.68-3.04-.09-5.49-1.4-6.76-4.22-2.14-4.76-2.18-9.65-.04-14.42,1.48-3.3,4.34-4.52,7.85-4.29,3.42.22,5.68,2.05,6.92,5.18.8,2.03,1.06,4.17,1.04,6.35-.02,2.71-.37,5.34-1.8,7.72Z"/>
    </g>
  </g>
</svg>