<?xml version="1.0" encoding="UTF-8"?>
<svg id="Layer_2" data-name="Layer 2" xmlns="http://www.w3.org/2000/svg" xmlns:xlink="http://www.w3.org/1999/xlink" viewBox="0 0 140.53 165.44">
  <defs>
    <style>
      .cls-1 {
        fill: none;
      }

      .cls-1, .cls-2, .cls-3 {
        stroke-width: 0px;
      }

      .cls-2 {
        fill: #8f21da;
      }

      .cls-3 {
        fill: #721aae;
      }

      .cls-4 {
        clip-path: url(#clippath);
      }
    </style>
    <clipPath id="clippath">
      <rect class="cls-1" y="0" width="140.53" height="165.44"/>
    </clipPath>
  </defs>
  <g id="Export">
    <g id="Group_1060" data-name="Group 1060">
      <g id="Group_998" data-name="Group 998">
        <g class="cls-4">
          <g id="Group_968" data-name="Group 968">
            <path id="Path_2676" data-name="Path 2676" class="cls-3" d="M45.39,34.27c0,3.06.06,5.96-.06,8.84-.02.51-.73,1.17-1.28,1.46-8.15,4.36-15.11,10.65-20.28,18.31-.26.38-.5.78-.89,1.4l99.06,51.64c.89-2.75,1.9-5.33,2.58-7.99,6.42-24.99-5.11-51.13-27.91-63.23-1.01-.39-1.64-1.42-1.51-2.5.1-2.61.03-5.23.03-7.92,21.11,7.86,42.95,32.73,39.81,66.08-3.06,32.54-30.62,57.95-63.43,58.47-33.05.53-61.49-23.79-65.67-55.97C1.47,69.16,22.8,42.84,45.38,34.27M110.4,119.97c-.11.09-.22.19-.32.3-.12.23-.24.46-.35.69-3.38,6.72-8.79,10.56-16.35,10.64-15.5.15-31.01.14-46.52,0-8.09-.17-15.08-5.7-17.12-13.53-1.94-7,1.09-12.79,4.32-18.73,11.62,7.28,23,8.12,34.28-1.26-2.92-1.51-5.65-2.94-8.41-4.3-.28-.14-.79.08-1.14.24-6.91,3.37-15.18,2.2-20.88-2.97l3.33-7.09-22.39-11.66c-10.93,23.52-2.88,57.66,27.29,72.14,28.39,13.61,58.94.56,71.34-20.72l-7.09-3.72"/>
            <path id="Path_2677" data-name="Path 2677" class="cls-2" d="M94.31,73.73c-1.78,0-3.37-.09-4.96.02-5.89.39-10.7,3.21-15.09,6.91-2.56,2.16-1.52,2.07-4.57.5-6.75-3.49-13.46-7.03-20.19-10.55-.45-.23-.88-.5-1.43-.82,1.7-3.57,3.28-7.1,5.03-10.54.86-1.7,1.28-3.59,1.23-5.49-.06-12.04-.03-24.08-.03-36.12v-1.9c-.57-.14-1.06-.24-1.54-.38-2.07-.58-3.44-2.54-3.27-4.68.22-2.2,2-3.91,4.21-4.06.21-.02.41-.01.62-.01,10.65,0,21.29,0,31.94,0,2.45,0,4.19,1.31,4.71,3.47.45,1.93-.44,3.92-2.19,4.87-.8.34-1.63.62-2.48.85-.02.38-.08.88-.08,1.37,0,12.71,0,25.42.02,38.13.02.92.23,1.82.61,2.66,2.25,4.82,4.57,9.61,6.86,14.41.2.41.36.84.59,1.38"/>
            <path id="Path_2678" data-name="Path 2678" class="cls-2" d="M107.09,100.65l-26.37-13.75c3.69-3.03,7.51-5.03,12.19-4.13,2.15.54,4.24,1.26,6.26,2.16.46.22.83.59,1.05,1.05,2.24,4.6,4.43,9.22,6.63,13.83.1.27.18.55.24.84"/>
          </g>
        </g>
      </g>
    </g>
  </g>
</svg>