<?xml version="1.0" encoding="UTF-8"?>
<svg id="Layer_2" data-name="Layer 2" xmlns="http://www.w3.org/2000/svg" xmlns:xlink="http://www.w3.org/1999/xlink" viewBox="0 0 82.64 97.29">
  <defs>
    <style>
      .cls-1 {
        fill: none;
      }

      .cls-1, .cls-2, .cls-3 {
        stroke-width: 0px;
      }

      .cls-2 {
        fill: #8f21da;
      }

      .cls-3 {
        fill: #721aae;
      }

      .cls-4 {
        clip-path: url(#clippath);
      }
    </style>
    <clipPath id="clippath">
      <rect class="cls-1" width="82.64" height="97.29"/>
    </clipPath>
  </defs>
  <g id="Export">
    <g id="Group_1060" data-name="Group 1060">
      <g id="Group_998" data-name="Group 998">
        <g class="cls-4">
          <g id="Group_968" data-name="Group 968">
            <path id="Path_2676" data-name="Path 2676" class="cls-3" d="M26.69,20.15c0,1.8.04,3.5-.03,5.2-.01.3-.43.69-.75.86-4.79,2.57-8.89,6.26-11.93,10.77-.15.23-.29.46-.52.82l58.25,30.36c.53-1.61,1.12-3.13,1.52-4.7,3.78-14.7-3.01-30.07-16.41-37.18-.6-.23-.96-.83-.89-1.47.06-1.53.02-3.07.02-4.66,12.41,4.62,25.26,19.24,23.41,38.86-1.8,19.13-18,34.08-37.3,34.38-19.44.31-36.16-13.99-38.62-32.91C.87,40.67,13.41,25.19,26.69,20.15M64.92,70.55c-.07.05-.13.11-.19.17-.07.14-.14.27-.21.4-1.99,3.95-5.17,6.21-9.62,6.26-9.12.09-18.23.08-27.35,0-4.76-.1-8.87-3.35-10.07-7.96-1.14-4.12.64-7.52,2.54-11.01,6.84,4.28,13.53,4.78,20.16-.74-1.72-.89-3.32-1.73-4.95-2.53-.16-.08-.47.05-.67.14-4.06,1.98-8.93,1.29-12.28-1.74l1.96-4.17-13.17-6.86c-6.43,13.83-1.7,33.91,16.05,42.42,16.69,8.01,34.66.33,41.95-12.19l-4.17-2.19"/>
            <path id="Path_2677" data-name="Path 2677" class="cls-2" d="M55.46,43.36c-1.04,0-1.98-.05-2.92,0-3.47.23-6.29,1.89-8.87,4.07-1.51,1.27-.89,1.22-2.69.29-3.97-2.05-7.92-4.13-11.87-6.21-.26-.14-.52-.3-.84-.48,1-2.1,1.93-4.17,2.96-6.2.5-1,.75-2.11.72-3.23-.03-7.08-.02-14.16-.02-21.24v-1.12c-.33-.08-.62-.14-.91-.22-1.22-.34-2.02-1.49-1.92-2.75.13-1.29,1.18-2.3,2.47-2.39.12,0,.24,0,.36,0,6.26,0,12.52,0,18.78,0,1.44,0,2.46.77,2.77,2.04.27,1.13-.26,2.31-1.29,2.86-.47.2-.96.37-1.46.5-.01.22-.05.52-.05.81,0,7.47,0,14.95.01,22.42,0,.54.13,1.07.36,1.56,1.32,2.84,2.69,5.65,4.03,8.47.12.24.21.49.34.81"/>
            <path id="Path_2678" data-name="Path 2678" class="cls-2" d="M62.97,59.19l-15.51-8.08c2.17-1.78,4.42-2.96,7.17-2.43,1.26.32,2.49.74,3.68,1.27.27.13.49.35.62.62,1.31,2.7,2.6,5.42,3.9,8.13.06.16.11.33.14.49"/>
          </g>
        </g>
      </g>
    </g>
  </g>
</svg>