<?xml version="1.0" encoding="UTF-8"?>
<svg id="Layer_2" data-name="Layer 2" xmlns="http://www.w3.org/2000/svg" viewBox="0 0 688.1 152.04">
  <defs>
    <style>
      .cls-1 {
        fill: #fff;
        stroke-width: 0px;
      }
    </style>
  </defs>
  <g id="Layer_1_copy_2" data-name="Layer 1 copy 2">
    <g>
      <path class="cls-1" d="M120.75,20.46l36.95-5.58s2.36,42.64,4.38,73.74c.62,9.57,6.52,14.59,18.15,13.84,12.22-.79,18.49-5.58,17.87-15.16-2.01-31.1-5.19-73.89-5.19-73.89l39.71-6.36s.09,54.1,2.11,85.29c1.66,25.56-20.88,38.76-49.72,40.62-33.16,2.14-55.82-10.17-57.43-35.01-2.08-32.18-6.82-77.49-6.82-77.49Z"/>
      <path class="cls-1" d="M310,14.39l-38.83-5.99-40,126.98,40,2.59,8.01-24.16,26.82-.2,5.8,24.96,47.27-7.19-49.07-116.99ZM280.15,80.55l11.59-33.62,12.38,34.14-23.96-.53Z"/>
      <path class="cls-1" d="M335.35,21.54l107.49-8.98-.6,33.74-30.83,1.8,3.8,92.04-38.43-3.39-3.6-87.85-32.83,3.99-5-31.34Z"/>
      <path class="cls-1" d="M633.65,0c-39.26,0-62.9,23.95-62.9,63.29,0,42.93,19.84,62.29,56.7,62.29,38.72,0,60.65-17.01,60.65-56.9,0-45.93-15.06-68.68-54.45-68.68ZM655.19,61.42c-1.73,8.7-5.56,16.44-12.75,22.44-7.58,6.33-16.38,8.82-26.3,6.98-1.08-.2-2.1-.63-3.15-.96-1.69-.54-2.45-.29-3.38,1.14-2.07,3.15-3.74,6.48-5.29,9.86-.86,1.87-4.52,2.53-5.94,1.04-.61-.64-.7-1.44-.26-2.23,6.47-11.56,13.31-22.87,24.01-31.64,4.5-3.69,9.3-6.97,14.64-9.49.92-.43,1.89-.84,2.36-1.81.55-1.15.45-2.22-.45-3.14-.92-.95-2.24-1.18-3.69-.53-2.2.97-4.31,2.11-6.36,3.33-10.16,6.05-18.34,13.98-25.15,23.23-.36.49-.68,1-1.13,1.68-4.8-7.13-5.29-14.58-2.71-22.31,3.14-9.44,9.75-16.01,19.43-19.93,5.16-2.09,10.53-3.43,15.94-4.69,6.3-1.46,12.39-3.45,18.12-6.4.36-.18.71-.38,1.08-.52,1.59-.61,2.83.02,2.92,1.63.14,2.42.16,4.86.17,7.29.04,8.39-.46,16.75-2.11,25.05Z"/>
      <path class="cls-1" d="M539.98,89.15c15.17-5.24,23.31-16.92,23.31-37.54,0-30.95-17.01-50.31-55.05-50.31-24.42,0-54.45,4.59-54.45,4.59l-7.01,118.59,40.24,3.99.4-38.73s8.76,1.36,17.54,2.19h-.12s16.01,38.94,16.01,38.94l40.83,2.99-21.62-44.72h-.09ZM511.44,62.79c-10.04,0-23.42-2.2-23.42-2.2l.8-21.16s12.21-.8,20.02-.8c12.62,0,17.82,5.71,17.82,14.38,0,7.24-6.65,9.78-15.21,9.78Z"/>
      <path class="cls-1" d="M117.35,73.63c0-45.93-15.06-68.68-54.45-68.68S0,28.9,0,68.24s15.08,56.94,43.36,61.33l-1.92,22.47,48.69-4.42-9.07-19.96c23.42-6.35,36.29-23.48,36.29-54.03ZM74.17,93.23c-1.5,1.82-3.34,3.11-5.54,3.95-2.1.81-4.51.21-5.93-1.58-.63-.79-1.05-1.79-1.15-2.93l-.48-5.35c-.2-2.15-.99-5.51-2.87-7.14-2.78-2.4-7.23-2.46-9.98-.94,0,0-5.14,2.82-5.14,2.82-3.73,2.05-6.8-.79-8.03-4.26-1.67-4.68-1.47-9.93-.01-14.69,3.65-11.89,13.54-22.41,26.17-22.41s18.26,12.99,18.26,28.96c0,11.66-1.66,19.15-5.3,23.56Z"/>
    </g>
  </g>
</svg>