<?xml version="1.0" encoding="UTF-8"?>
<svg id="Layer_2" data-name="Layer 2" xmlns="http://www.w3.org/2000/svg" viewBox="0 0 360.95 79.75">
  <defs>
    <style>
      .cls-1 {
        fill: #fff;
        stroke-width: 0px;
      }
    </style>
  </defs>
  <g id="Export">
    <g>
      <path class="cls-1" d="M63.34,10.73l19.38-2.93s1.24,22.37,2.3,38.68c.33,5.02,3.42,7.65,9.52,7.26,6.41-.41,9.7-2.93,9.38-7.95-1.06-16.32-2.72-38.76-2.72-38.76l20.83-3.34s.05,28.38,1.11,44.74c.87,13.41-10.95,20.33-26.08,21.31-17.39,1.12-29.28-5.33-30.13-18.36-1.09-16.88-3.58-40.65-3.58-40.65Z"/>
      <path class="cls-1" d="M162.62,7.55l-20.37-3.14-20.99,66.61,20.99,1.36,4.2-12.67,14.07-.1,3.05,13.09,24.8-3.77-25.74-61.37ZM146.96,42.25l6.08-17.64,6.49,17.91-12.57-.28Z"/>
      <path class="cls-1" d="M175.91,11.3l56.39-4.71-.32,17.7-16.17.94,1.99,48.28-20.16-1.78-1.89-46.08-17.22,2.09-2.63-16.44Z"/>
      <path class="cls-1" d="M332.39,0c-20.59,0-33,12.56-33,33.2,0,22.52,10.41,32.68,29.74,32.68,20.31,0,31.82-8.92,31.82-29.85,0-24.09-7.9-36.03-28.56-36.03ZM343.69,32.22c-.91,4.56-2.92,8.63-6.69,11.77-3.98,3.32-8.59,4.63-13.8,3.66-.57-.1-1.1-.33-1.65-.51-.88-.28-1.28-.15-1.77.6-1.09,1.65-1.96,3.4-2.77,5.17-.45.98-2.37,1.33-3.12.55-.32-.34-.37-.76-.14-1.17,3.39-6.06,6.98-12,12.6-16.6,2.36-1.94,4.88-3.66,7.68-4.98.48-.23.99-.44,1.24-.95.29-.6.24-1.16-.23-1.65-.48-.5-1.18-.62-1.94-.28-1.15.51-2.26,1.1-3.34,1.75-5.33,3.17-9.62,7.33-13.19,12.18-.19.25-.35.52-.59.88-2.52-3.74-2.77-7.65-1.42-11.7,1.65-4.95,5.11-8.4,10.19-10.46,2.71-1.1,5.52-1.8,8.36-2.46,3.3-.76,6.5-1.81,9.5-3.36.19-.1.37-.2.57-.27.84-.32,1.48,0,1.53.86.08,1.27.08,2.55.09,3.82.02,4.4-.24,8.79-1.11,13.14Z"/>
      <path class="cls-1" d="M283.26,46.77c7.96-2.75,12.23-8.87,12.23-19.69,0-16.24-8.92-26.39-28.88-26.39-12.81,0-28.56,2.41-28.56,2.41l-3.68,62.21,21.11,2.1.21-20.32s4.59.72,9.2,1.15h-.07s8.4,20.43,8.4,20.43l21.42,1.57-11.34-23.46h-.05ZM268.29,32.94c-5.27,0-12.29-1.15-12.29-1.15l.42-11.1s6.41-.42,10.5-.42c6.62,0,9.35,2.99,9.35,7.54,0,3.8-3.49,5.13-7.98,5.13Z"/>
      <path class="cls-1" d="M61.56,38.62c0-24.09-7.9-36.03-28.56-36.03S0,15.16,0,35.8s7.91,29.87,22.75,32.17l-1.01,11.79,25.54-2.32-4.76-10.47c12.28-3.33,19.04-12.31,19.04-28.34ZM38.91,48.9c-.79.95-1.75,1.63-2.91,2.07-1.1.42-2.37.11-3.11-.83-.33-.42-.55-.94-.6-1.54l-.25-2.81c-.1-1.13-.52-2.89-1.5-3.74-1.46-1.26-3.79-1.29-5.24-.49,0,0-2.69,1.48-2.69,1.48-1.95,1.08-3.56-.41-4.21-2.24-.87-2.46-.77-5.21,0-7.71,1.92-6.24,7.1-11.75,13.73-11.75s9.58,6.82,9.58,15.19c0,6.12-.87,10.04-2.78,12.36Z"/>
    </g>
  </g>
</svg>