<?xml version="1.0" encoding="UTF-8"?>
<svg id="Layer_2" data-name="Layer 2" xmlns="http://www.w3.org/2000/svg" xmlns:xlink="http://www.w3.org/1999/xlink" viewBox="0 0 190.7 49.16">
  <defs>
    <style>
      .cls-1 {
        fill: #9c0e2a;
      }

      .cls-1, .cls-2, .cls-3 {
        stroke-width: 0px;
      }

      .cls-2 {
        fill: none;
      }

      .cls-4 {
        clip-path: url(#clippath);
      }

      .cls-3 {
        fill: #fff;
      }
    </style>
    <clipPath id="clippath">
      <rect class="cls-2" y="0" width="190.7" height="49.16"/>
    </clipPath>
  </defs>
  <g id="Export">
    <g class="cls-4">
      <path class="cls-1" d="M190.7,24.42c0-6.82-1.24-11.76-3.79-15.12-2.81-3.69-7.08-5.49-13.05-5.49s-10.58,1.79-13.95,5.19c-1.32,1.33-2.39,2.89-3.21,4.63-.71-2.04-1.8-3.78-3.28-5.21-2.93-2.83-7.22-4.27-12.75-4.27-6.57,0-14.44,1.19-14.77,1.24l-1.95.3-.08,1.39-31.76,2.65.85,5.31-3.02-7.19-.1-.02v-.6l-3.65-3.19s-.47,1.69-.65,3.13l-9.28-1.43-5.81,18.43c-.25-7.55-.26-15.96-.26-16.07v-2.85s-3.76-3.81-3.76-3.81c-1.52.51-1.92,2.86-1.98,4.73l-9.8,1.57.17,2.23c0,.11.84,11.4,1.37,19.53.04.63-.12.77-.21.84-.17.14-.74.48-2.24.58-.15,0-.29.01-.43.01-1.61,0-1.73-.53-1.79-1.4-.03-.51-.07-1.03-.1-1.55.64-.14,1.15-.26,1.15-.26V9.78l-2.36-2.4h0s-3.75-3.81-3.75-3.81h0s-1.63,3.01-2.54,4.75l-8.43,1.27.06.58c-2.81-3.4-6.97-5.06-12.7-5.06s-10.58,1.79-13.95,5.19c-3.36,3.39-5.13,8.22-5.13,13.99,0,12.04,5.72,16.59,11.3,18.15l-.12,1.37-2.89-.16-1.32,1.68,3.76,3.81,19.19-1.74-2.73-6c2.67-1.21,5.28-3.27,6.94-6.75.69,2.65,2.24,4.86,4.58,6.45,2.69,1.83,6.42,2.8,10.76,2.8.67,0,1.37-.02,2.07-.07,2.58-.17,4.93-.65,6.98-1.41l1.82,1.85,15.56,1.01,2.16-6.52,3.4-.03.15.65-2.3.7v1.74l3.76,3.81,15.38-2.34,1.33,1.34,15.06,1.33-.34-8.25,3.58,3.63,15.62,1.55.1-10.15c.16.02.33.04.5.06l1.67,4.05c-.58,1.22-1.17,2.49-1.17,2.49l3.76,3.81,16.51,1.21-3.77-7.8c3.35,3.35,8.89,5.46,17.01,5.46,1.42,0,2.73-.13,3.95-.37,12.01-1.47,14.67-10,14.67-17.27M24.47,27.73h1.01c-.17.5-.39.94-.68,1.31-.05-.46-.16-.9-.33-1.31M103.24,39.57l-2.14-5.1h2.03l.21,5.05s-.05.03-.09.05"/>
      <path class="cls-1" d="M183.15,5.49c-2.81-3.69-7.08-5.49-13.05-5.49s-10.58,1.79-13.95,5.19c-1.32,1.33-2.39,2.89-3.21,4.63-.71-2.04-1.8-3.78-3.28-5.21-2.93-2.83-7.22-4.27-12.75-4.27-6.57,0-14.44,1.19-14.77,1.24l-1.95.3-.08,1.39-31.76,2.65.85,5.31-3.02-7.19-13.69-2.11-5.81,18.43c-.25-7.55-.26-15.96-.26-16.07V1.45s-15.54,2.49-15.54,2.49l.17,2.23c0,.11.84,11.4,1.37,19.53.04.63-.12.77-.21.84-.17.14-.74.48-2.24.58-.15,0-.29.01-.43.01-1.61,0-1.73-.53-1.79-1.4-.53-8.12-1.15-19.38-1.16-19.49l-.15-2.67-14.22,2.15-.91.13c-2.8-3.04-6.81-4.54-12.24-4.54-5.76,0-10.58,1.79-13.95,5.19C1.77,9.89,0,14.72,0,20.49c0,12.04,5.72,16.59,11.3,18.15l-.57,6.71,19.19-1.74-2.73-6c2.67-1.21,5.28-3.27,6.94-6.75.69,2.65,2.24,4.86,4.58,6.45,2.69,1.83,6.42,2.8,10.76,2.8.67,0,1.37-.02,2.07-.07,3.87-.25,7.23-1.2,9.81-2.76l-1.01,3.2,15.56,1.01,2.16-6.52,3.4-.03,1.61,6.9,16.65-2.53.06,1.54,15.06,1.33-1.02-24.73,5.46-.32-1.21,20.43,15.62,1.55.1-10.15c.16.02.33.04.5.06l4.26,10.36,16.51,1.21-6.49-13.42c1.14-.69,2.09-1.55,2.87-2.56,1.96,11,10.06,13.49,16.99,13.49,15.28,0,18.48-9.51,18.48-17.49,0-6.82-1.24-11.76-3.79-15.12M92.41,18.89l6.45-.78.73,17.9-7.18-17.12Z"/>
      <path class="cls-3" d="M34.39,7.85l9.78-1.48s.62,11.28,1.16,19.51c.16,2.53,1.72,3.86,4.8,3.66,3.23-.21,4.89-1.48,4.73-4.01-.53-8.23-1.37-19.55-1.37-19.55l10.51-1.68s.02,14.32.56,22.57c.44,6.76-5.52,10.26-13.16,10.75-8.77.57-14.77-2.69-15.2-9.26-.55-8.51-1.81-20.5-1.81-20.5"/>
      <path class="cls-3" d="M84.46,6.24l-10.28-1.58-10.59,33.6,10.59.69,2.12-6.39,7.1-.05,1.54,6.6,12.51-1.9-12.98-30.96ZM76.56,23.75l3.07-8.9,3.27,9.03-6.34-.14Z"/>
      <polygon class="cls-3" points="91.17 8.14 119.61 5.76 119.45 14.69 111.3 15.16 112.3 39.51 102.13 38.62 101.18 15.37 92.49 16.43 91.17 8.14"/>
      <path class="cls-3" d="M170.1,2.44c-10.39,0-16.64,6.34-16.64,16.75,0,11.36,5.25,16.48,15,16.48,10.24,0,16.05-4.5,16.05-15.06,0-12.15-3.98-18.17-14.41-18.17M175.8,18.69c-.46,2.3-1.47,4.35-3.37,5.94-2.01,1.68-4.33,2.33-6.96,1.85-.29-.05-.56-.17-.83-.26-.45-.14-.65-.08-.9.3-.55.83-.99,1.71-1.4,2.61-.23.5-1.2.67-1.57.28-.16-.17-.19-.38-.07-.59,1.71-3.06,3.52-6.05,6.35-8.37,1.19-.98,2.46-1.84,3.87-2.51.24-.11.5-.22.62-.48.15-.3.12-.59-.12-.83-.24-.25-.59-.31-.98-.14-.58.26-1.14.56-1.68.88-2.69,1.6-4.85,3.7-6.65,6.15-.09.13-.18.26-.3.44-1.27-1.89-1.4-3.86-.72-5.9.83-2.5,2.58-4.24,5.14-5.27,1.36-.55,2.79-.91,4.22-1.24,1.67-.39,3.28-.91,4.79-1.69.09-.05.19-.1.29-.14.42-.16.75,0,.77.43.04.64.04,1.29.05,1.93,0,2.22-.12,4.43-.56,6.63"/>
      <path class="cls-3" d="M145.31,26.02c4.01-1.39,6.17-4.48,6.17-9.93,0-8.19-4.5-13.31-14.57-13.31-6.46,0-14.41,1.22-14.41,1.22l-1.85,31.38,10.65,1.06.11-10.25s2.32.36,4.64.58h-.03s4.24,10.3,4.24,10.3l10.8.79-5.72-11.83h-.02ZM137.76,19.05c-2.66,0-6.2-.58-6.2-.58l.21-5.6s3.23-.21,5.3-.21c3.34,0,4.71,1.51,4.71,3.8,0,1.92-1.76,2.59-4.03,2.59"/>
      <path class="cls-3" d="M33.49,21.92c0-12.15-3.98-18.17-14.41-18.17S2.44,10.08,2.44,20.49s3.99,15.07,11.47,16.23l-.51,5.95,12.88-1.17-2.4-5.28c6.2-1.68,9.6-6.21,9.6-14.3M22.13,27.18c-.39.48-.88.82-1.46,1.04-.55.21-1.19.06-1.56-.41-.16-.21-.28-.47-.3-.77l-.13-1.4c-.05-.57-.26-1.45-.75-1.87-.73-.63-1.9-.64-2.62-.25l-1.35.74c-.98.54-1.78-.21-2.11-1.12-.44-1.23-.39-2.61,0-3.86.96-3.12,3.55-5.88,6.87-5.88s4.79,3.41,4.79,7.6c0,3.06-.43,5.03-1.39,6.19"/>
    </g>
  </g>
</svg>