<?xml version="1.0" encoding="UTF-8"?>
<svg id="Layer_2" data-name="Layer 2" xmlns="http://www.w3.org/2000/svg" xmlns:xlink="http://www.w3.org/1999/xlink" viewBox="0 0 186.59 48.1">
  <defs>
    <style>
      .cls-1 {
        fill: none;
      }

      .cls-1, .cls-2, .cls-3 {
        stroke-width: 0px;
      }

      .cls-2 {
        fill: #721aae;
      }

      .cls-4 {
        clip-path: url(#clippath);
      }

      .cls-3 {
        fill: #fff;
      }
    </style>
    <clipPath id="clippath">
      <rect class="cls-1" y="0" width="186.59" height="48.1"/>
    </clipPath>
  </defs>
  <g id="Export">
    <g class="cls-4">
      <path class="cls-2" d="M186.59,23.89c0-6.67-1.21-11.51-3.71-14.79-2.75-3.62-6.93-5.37-12.77-5.37s-10.35,1.76-13.65,5.08c-1.29,1.3-2.34,2.82-3.14,4.53-.69-1.99-1.76-3.7-3.21-5.1-2.87-2.77-7.06-4.18-12.47-4.18-6.43,0-14.13,1.17-14.46,1.22l-1.9.29-.08,1.36-31.08,2.6.83,5.2-2.95-7.04-.1-.02v-.59l-3.58-3.12s-.46,1.66-.64,3.06l-9.08-1.4-5.68,18.03c-.24-7.39-.26-15.61-.26-15.72v-2.79s-3.68-3.73-3.68-3.73c-1.49.5-1.88,2.8-1.93,4.63l-9.58,1.53.16,2.18c0,.11.83,11.16,1.34,19.11.04.62-.12.75-.21.82-.17.14-.72.47-2.2.57-.14,0-.29.01-.42.01-1.58,0-1.69-.52-1.75-1.37-.03-.5-.06-1-.1-1.52.63-.14,1.13-.25,1.13-.25V9.57l-2.31-2.34h0s-3.67-3.73-3.67-3.73h0s-1.59,2.94-2.49,4.65l-8.24,1.25.06.57c-2.75-3.33-6.82-4.95-12.43-4.95s-10.35,1.76-13.65,5.08c-3.29,3.31-5.02,8.05-5.02,13.69,0,11.78,5.59,16.23,11.06,17.76l-.11,1.34-2.83-.16-1.29,1.65,3.68,3.73,18.78-1.7-2.67-5.87c2.61-1.18,5.17-3.2,6.79-6.6.67,2.6,2.19,4.75,4.48,6.31,2.64,1.79,6.28,2.74,10.53,2.74.66,0,1.34-.02,2.02-.07,2.53-.16,4.83-.63,6.83-1.38l1.78,1.81,15.23.99,2.11-6.38,3.33-.02.15.64-2.25.69v1.7l3.68,3.73,15.05-2.29,1.3,1.32,14.74,1.3-.33-8.07,3.5,3.55,15.29,1.52.1-9.93c.16.02.32.04.49.06l1.63,3.96c-.57,1.19-1.14,2.44-1.14,2.44l3.68,3.73,16.16,1.18-3.69-7.63c3.28,3.28,8.7,5.34,16.64,5.34,1.39,0,2.68-.13,3.87-.36,11.75-1.44,14.35-9.79,14.35-16.9M23.94,27.13h.99c-.16.48-.38.92-.66,1.28-.05-.45-.16-.88-.33-1.28M101.02,38.72l-2.09-4.99h1.98l.2,4.94s-.05.03-.09.05"/>
      <path class="cls-2" d="M179.2,5.37c-2.75-3.62-6.93-5.37-12.77-5.37s-10.35,1.76-13.65,5.08c-1.29,1.3-2.34,2.82-3.14,4.53-.69-1.99-1.76-3.7-3.21-5.1-2.87-2.77-7.06-4.18-12.47-4.18-6.43,0-14.13,1.17-14.46,1.22l-1.9.29-.08,1.36-31.08,2.6.83,5.2-2.95-7.04-13.39-2.07-5.68,18.03c-.24-7.39-.26-15.61-.26-15.72V1.41s-15.2,2.43-15.2,2.43l.16,2.18c0,.11.83,11.16,1.34,19.11.04.62-.12.75-.21.82-.17.14-.72.47-2.2.57-.14,0-.29.01-.42.01-1.58,0-1.69-.52-1.75-1.37-.51-7.95-1.13-18.96-1.13-19.07l-.14-2.62-13.91,2.1-.89.13c-2.74-2.98-6.67-4.44-11.98-4.44-5.63,0-10.35,1.76-13.65,5.08C1.74,9.67,0,14.41,0,20.05c0,11.78,5.59,16.23,11.06,17.76l-.56,6.56,18.78-1.7-2.67-5.87c2.61-1.18,5.17-3.2,6.79-6.6.67,2.6,2.19,4.75,4.48,6.31,2.64,1.79,6.28,2.74,10.53,2.74.66,0,1.34-.02,2.02-.07,3.79-.24,7.08-1.17,9.6-2.71l-.99,3.14,15.23.99,2.11-6.38,3.33-.02,1.57,6.75,16.29-2.48.06,1.5,14.74,1.3-1-24.2,5.35-.31-1.18,19.99,15.29,1.52.1-9.93c.16.02.32.04.49.06l4.17,10.13,16.16,1.18-6.35-13.13c1.11-.68,2.05-1.52,2.81-2.51,1.92,10.76,9.84,13.2,16.63,13.2,14.95,0,18.09-9.31,18.09-17.11,0-6.67-1.21-11.51-3.71-14.79M90.42,18.49l6.31-.77.72,17.52-7.03-16.75Z"/>
      <path class="cls-3" d="M33.64,7.68l9.57-1.44s.61,11.04,1.13,19.09c.16,2.48,1.69,3.78,4.7,3.58,3.16-.2,4.79-1.45,4.63-3.92-.52-8.05-1.34-19.13-1.34-19.13l10.28-1.65s.02,14.01.55,22.08c.43,6.62-5.41,10.03-12.87,10.52-8.58.55-14.45-2.63-14.87-9.06-.54-8.33-1.77-20.06-1.77-20.06"/>
      <path class="cls-3" d="M82.64,6.11l-10.05-1.55-10.36,32.87,10.36.67,2.07-6.25,6.94-.05,1.5,6.46,12.24-1.86-12.7-30.29ZM74.91,23.24l3-8.7,3.2,8.84-6.2-.14Z"/>
      <polygon class="cls-3" points="89.2 7.96 117.03 5.63 116.88 14.37 108.9 14.83 109.88 38.66 99.93 37.78 99 15.04 90.5 16.07 89.2 7.96"/>
      <path class="cls-3" d="M166.43,2.38c-10.16,0-16.29,6.2-16.29,16.39,0,11.11,5.14,16.13,14.68,16.13,10.02,0,15.7-4.4,15.7-14.73,0-11.89-3.9-17.78-14.1-17.78M172.01,18.28c-.45,2.25-1.44,4.26-3.3,5.81-1.96,1.64-4.24,2.28-6.81,1.81-.28-.05-.54-.16-.82-.25-.44-.14-.63-.07-.88.29-.54.81-.97,1.68-1.37,2.55-.22.48-1.17.66-1.54.27-.16-.17-.18-.37-.07-.58,1.67-2.99,3.45-5.92,6.22-8.19,1.17-.96,2.41-1.8,3.79-2.46.24-.11.49-.22.61-.47.14-.3.12-.57-.12-.81-.24-.25-.58-.3-.96-.14-.57.25-1.11.54-1.65.86-2.63,1.57-4.75,3.62-6.51,6.01-.09.13-.18.26-.29.43-1.24-1.85-1.37-3.77-.7-5.78.81-2.44,2.52-4.14,5.03-5.16,1.34-.54,2.73-.89,4.13-1.21,1.63-.38,3.21-.89,4.69-1.66.09-.05.18-.1.28-.14.41-.16.73,0,.76.42.04.63.04,1.26.04,1.89,0,2.17-.12,4.34-.55,6.49"/>
      <path class="cls-3" d="M142.18,25.46c3.93-1.36,6.03-4.38,6.03-9.72,0-8.01-4.4-13.03-14.25-13.03-6.32,0-14.1,1.19-14.1,1.19l-1.81,30.7,10.42,1.03.1-10.03s2.27.35,4.54.57h-.03s4.15,10.08,4.15,10.08l10.57.78-5.6-11.58h-.02ZM134.79,18.64c-2.6,0-6.06-.57-6.06-.57l.21-5.48s3.16-.21,5.18-.21c3.27,0,4.61,1.48,4.61,3.72,0,1.87-1.72,2.53-3.94,2.53"/>
      <path class="cls-3" d="M32.76,21.45c0-11.89-3.9-17.78-14.1-17.78S2.38,9.87,2.38,20.05s3.9,14.74,11.23,15.88l-.5,5.82,12.61-1.14-2.35-5.17c6.06-1.64,9.4-6.08,9.4-13.99M21.59,26.52c-.39.47-.87.81-1.44,1.02-.54.21-1.17.06-1.53-.41-.16-.21-.27-.46-.3-.76l-.13-1.39c-.05-.56-.26-1.43-.74-1.85-.72-.62-1.87-.64-2.58-.24l-1.33.73c-.96.53-1.76-.2-2.08-1.1-.43-1.21-.38-2.57,0-3.8.95-3.08,3.5-5.8,6.78-5.8s4.73,3.36,4.73,7.5c0,3.02-.43,4.96-1.37,6.1"/>
    </g>
  </g>
</svg>