<?xml version="1.0" encoding="UTF-8"?>
<svg id="Layer_2" data-name="Layer 2" xmlns="http://www.w3.org/2000/svg" xmlns:xlink="http://www.w3.org/1999/xlink" viewBox="0 0 188.61 48.63">
  <defs>
    <style>
      .cls-1 {
        fill: none;
      }

      .cls-1, .cls-2, .cls-3 {
        stroke-width: 0px;
      }

      .cls-2 {
        fill: #277c10;
      }

      .cls-4 {
        clip-path: url(#clippath);
      }

      .cls-3 {
        fill: #fff;
      }
    </style>
    <clipPath id="clippath">
      <rect class="cls-1" y="0" width="188.61" height="48.63"/>
    </clipPath>
  </defs>
  <g id="Export">
    <g class="cls-4">
      <path class="cls-2" d="M188.61,24.15c0-6.74-1.23-11.63-3.75-14.95-2.78-3.65-7-5.43-12.91-5.43s-10.46,1.77-13.79,5.13c-1.3,1.31-2.36,2.85-3.17,4.58-.7-2.01-1.78-3.74-3.24-5.15-2.9-2.8-7.14-4.22-12.61-4.22-6.5,0-14.29,1.18-14.61,1.23l-1.93.29-.08,1.37-31.41,2.63.84,5.25-2.98-7.12-.1-.02v-.6l-3.61-3.16s-.46,1.67-.65,3.1l-9.18-1.42-5.74,18.23c-.24-7.47-.26-15.78-.26-15.89v-2.82s-3.72-3.77-3.72-3.77c-1.51.5-1.9,2.83-1.96,4.68l-9.69,1.55.16,2.21c0,.11.84,11.28,1.36,19.31.04.63-.12.76-.21.83-.17.14-.73.48-2.22.57-.15,0-.29.01-.42.01-1.6,0-1.71-.53-1.77-1.39-.03-.5-.07-1.01-.1-1.54.64-.14,1.14-.25,1.14-.25V9.67l-2.33-2.37h0s-3.71-3.77-3.71-3.77h0s-1.61,2.98-2.51,4.7l-8.33,1.26.06.58c-2.78-3.36-6.89-5.01-12.57-5.01s-10.46,1.77-13.79,5.13c-3.32,3.35-5.08,8.13-5.08,13.84,0,11.91,5.65,16.41,11.18,17.95l-.12,1.36-2.86-.16-1.3,1.66,3.72,3.77,18.98-1.72-2.7-5.94c2.64-1.2,5.22-3.23,6.87-6.67.68,2.62,2.21,4.8,4.53,6.38,2.66,1.81,6.35,2.77,10.65,2.77.66,0,1.35-.02,2.04-.07,2.55-.16,4.88-.64,6.9-1.39l1.8,1.83,15.39,1,2.14-6.45,3.37-.02.15.64-2.28.69v1.72l3.72,3.77,15.22-2.31,1.31,1.33,14.9,1.32-.34-8.16,3.54,3.59,15.45,1.53.1-10.04c.16.02.33.04.49.06l1.65,4.01c-.57,1.2-1.15,2.46-1.15,2.46l3.72,3.77,16.33,1.2-3.73-7.72c3.32,3.32,8.8,5.4,16.82,5.4,1.4,0,2.7-.13,3.91-.37,11.87-1.45,14.51-9.89,14.51-17.08M24.2,27.43h1c-.16.49-.38.93-.67,1.3-.05-.46-.16-.89-.33-1.3M102.11,39.14l-2.12-5.05h2l.21,5s-.05.03-.09.05"/>
      <path class="cls-2" d="M181.15,5.43c-2.78-3.65-7-5.43-12.91-5.43s-10.46,1.77-13.79,5.13c-1.3,1.31-2.36,2.85-3.17,4.58-.7-2.01-1.78-3.74-3.24-5.15-2.9-2.8-7.14-4.22-12.61-4.22-6.5,0-14.29,1.18-14.61,1.23l-1.93.29-.08,1.37-31.41,2.63.84,5.25-2.98-7.12-13.54-2.09-5.74,18.23c-.24-7.47-.26-15.78-.26-15.89V1.43s-15.37,2.46-15.37,2.46l.16,2.21c0,.11.84,11.28,1.36,19.31.04.63-.12.76-.21.83-.17.14-.73.48-2.22.57-.15,0-.29.01-.42.01-1.6,0-1.71-.53-1.77-1.39-.52-8.03-1.14-19.16-1.14-19.28l-.15-2.64-14.06,2.12-.9.13c-2.77-3.01-6.74-4.49-12.11-4.49-5.69,0-10.46,1.77-13.79,5.13C1.76,9.78,0,14.56,0,20.27c0,11.91,5.65,16.41,11.18,17.95l-.57,6.64,18.98-1.72-2.7-5.94c2.64-1.2,5.22-3.23,6.87-6.67.68,2.62,2.21,4.8,4.53,6.38,2.66,1.81,6.35,2.77,10.65,2.77.66,0,1.35-.02,2.04-.07,3.83-.25,7.15-1.19,9.7-2.73l-1,3.17,15.39,1,2.14-6.45,3.37-.02,1.59,6.82,16.47-2.5.06,1.52,14.9,1.32-1.01-24.46,5.41-.32-1.19,20.21,15.45,1.53.1-10.04c.16.02.33.04.49.06l4.21,10.24,16.33,1.2-6.42-13.27c1.13-.68,2.07-1.53,2.84-2.54,1.94,10.88,9.95,13.34,16.81,13.34,15.11,0,18.28-9.41,18.28-17.3,0-6.74-1.23-11.63-3.75-14.95M91.4,18.69l6.38-.78.73,17.71-7.1-16.93Z"/>
      <path class="cls-3" d="M34.01,7.76l9.67-1.46s.62,11.16,1.14,19.3c.16,2.51,1.71,3.82,4.75,3.62,3.2-.21,4.84-1.46,4.68-3.97-.53-8.14-1.36-19.34-1.36-19.34l10.39-1.66s.02,14.16.55,22.32c.43,6.69-5.46,10.14-13.01,10.63-8.68.56-14.61-2.66-15.03-9.16-.55-8.42-1.79-20.28-1.79-20.28"/>
      <path class="cls-3" d="M83.54,6.18l-10.16-1.57-10.47,33.23,10.47.68,2.1-6.32,7.02-.05,1.52,6.53,12.37-1.88-12.84-30.62ZM75.73,23.49l3.03-8.8,3.24,8.94-6.27-.14Z"/>
      <polygon class="cls-3" points="90.17 8.05 118.3 5.69 118.15 14.52 110.08 15 111.07 39.08 101.02 38.19 100.07 15.2 91.48 16.25 90.17 8.05"/>
      <path class="cls-3" d="M168.24,2.41c-10.27,0-16.46,6.27-16.46,16.56,0,11.23,5.19,16.3,14.84,16.3,10.13,0,15.87-4.45,15.87-14.89,0-12.02-3.94-17.97-14.25-17.97M173.88,18.48c-.45,2.28-1.46,4.3-3.34,5.87-1.98,1.66-4.29,2.31-6.88,1.83-.28-.05-.55-.17-.82-.25-.44-.14-.64-.07-.89.3-.54.82-.98,1.7-1.38,2.58-.22.49-1.18.66-1.55.27-.16-.17-.18-.38-.07-.58,1.69-3.03,3.48-5.98,6.28-8.28,1.18-.97,2.43-1.82,3.83-2.48.24-.11.5-.22.62-.47.15-.3.12-.58-.12-.82-.24-.25-.59-.31-.97-.14-.57.25-1.13.55-1.66.87-2.66,1.58-4.8,3.66-6.58,6.08-.09.13-.18.26-.3.44-1.26-1.87-1.38-3.81-.71-5.84.82-2.47,2.55-4.19,5.09-5.22,1.35-.55,2.76-.9,4.17-1.23,1.65-.38,3.24-.9,4.74-1.68.09-.05.19-.1.28-.14.42-.16.74,0,.76.43.04.63.04,1.27.04,1.91,0,2.2-.12,4.38-.55,6.56"/>
      <path class="cls-3" d="M143.73,25.74c3.97-1.37,6.1-4.43,6.1-9.82,0-8.1-4.45-13.17-14.41-13.17-6.39,0-14.25,1.2-14.25,1.2l-1.83,31.04,10.53,1.05.1-10.14s2.29.36,4.59.57h-.03s4.19,10.19,4.19,10.19l10.69.78-5.66-11.7h-.02ZM136.26,18.84c-2.63,0-6.13-.57-6.13-.57l.21-5.54s3.2-.21,5.24-.21c3.3,0,4.66,1.49,4.66,3.76,0,1.9-1.74,2.56-3.98,2.56"/>
      <path class="cls-3" d="M33.12,21.68c0-12.02-3.94-17.97-14.25-17.97S2.41,9.97,2.41,20.27s3.95,14.9,11.35,16.05l-.5,5.88,12.74-1.16-2.37-5.22c6.13-1.66,9.5-6.14,9.5-14.14M21.8,26.78c-.39.47-.87.81-1.44,1.03-.55.21-1.18.06-1.54-.41-.16-.21-.27-.47-.3-.76l-.13-1.39c-.05-.56-.26-1.44-.75-1.86-.72-.63-1.88-.64-2.6-.25l-1.34.74c-.97.53-1.77-.21-2.09-1.11-.43-1.22-.38-2.59,0-3.83.95-3.1,3.53-5.84,6.82-5.84s4.76,3.39,4.76,7.55c0,3.04-.43,4.99-1.38,6.14"/>
    </g>
  </g>
</svg>