<?xml version="1.0" encoding="UTF-8"?>
<svg id="Layer_2" data-name="Layer 2" xmlns="http://www.w3.org/2000/svg" xmlns:xlink="http://www.w3.org/1999/xlink" viewBox="0 0 191.81 49.45">
  <defs>
    <style>
      .cls-1 {
        fill: #bb4d00;
      }

      .cls-1, .cls-2, .cls-3 {
        stroke-width: 0px;
      }

      .cls-2 {
        fill: none;
      }

      .cls-4 {
        clip-path: url(#clippath);
      }

      .cls-3 {
        fill: #fff;
      }
    </style>
    <clipPath id="clippath">
      <rect class="cls-2" width="191.81" height="49.45"/>
    </clipPath>
  </defs>
  <g id="Export">
    <g class="cls-4">
      <path class="cls-1" d="M191.81,24.56c0-6.86-1.25-11.83-3.81-15.2-2.83-3.72-7.12-5.52-13.13-5.52s-10.64,1.81-14.03,5.22c-1.33,1.34-2.4,2.9-3.23,4.66-.71-2.05-1.81-3.8-3.3-5.24-2.95-2.85-7.26-4.29-12.82-4.29-6.61,0-14.53,1.2-14.86,1.25l-1.96.3-.08,1.4-31.95,2.67.85,5.34-3.04-7.24-.1-.02v-.61l-3.68-3.21s-.47,1.7-.66,3.15l-9.33-1.44-5.84,18.54c-.25-7.6-.27-16.05-.27-16.16v-2.87s-3.79-3.83-3.79-3.83c-1.53.51-1.94,2.88-1.99,4.76l-9.85,1.58.17,2.24c0,.11.85,11.47,1.38,19.64.04.64-.12.77-.21.85-.17.14-.74.49-2.26.58-.15,0-.29.01-.43.01-1.62,0-1.74-.54-1.8-1.41-.03-.51-.07-1.03-.1-1.56.65-.14,1.16-.26,1.16-.26V9.84l-2.37-2.41h0s-3.77-3.83-3.77-3.83h0s-1.64,3.03-2.56,4.78l-8.47,1.28.06.59c-2.83-3.42-7.01-5.09-12.78-5.09s-10.64,1.81-14.03,5.22c-3.38,3.4-5.16,8.27-5.16,14.07,0,12.11,5.75,16.68,11.37,18.26l-.12,1.38-2.91-.16-1.33,1.69,3.78,3.83,19.31-1.75-2.74-6.04c2.68-1.22,5.31-3.29,6.98-6.79.69,2.67,2.25,4.88,4.6,6.49,2.71,1.84,6.45,2.82,10.83,2.82.67,0,1.37-.02,2.08-.07,2.6-.17,4.96-.65,7.02-1.42l1.83,1.86,15.65,1.02,2.17-6.56,3.42-.03.15.65-2.32.7v1.75l3.78,3.83,15.47-2.35,1.33,1.35,15.15,1.34-.34-8.29,3.6,3.65,15.71,1.56.11-10.21c.16.02.33.04.5.06l1.68,4.08c-.58,1.22-1.17,2.51-1.17,2.51l3.78,3.83,16.61,1.22-3.79-7.85c3.37,3.37,8.95,5.49,17.11,5.49,1.43,0,2.75-.13,3.98-.37,12.08-1.48,14.75-10.06,14.75-17.37M24.61,27.89h1.02c-.17.5-.39.95-.68,1.32-.05-.47-.16-.91-.34-1.32M103.85,39.8l-2.15-5.13h2.04l.21,5.08s-.05.03-.09.05"/>
      <path class="cls-1" d="M184.22,5.52C181.39,1.81,177.1,0,171.09,0s-10.64,1.81-14.03,5.22c-1.33,1.34-2.4,2.9-3.23,4.66-.71-2.05-1.81-3.8-3.3-5.24-2.95-2.85-7.26-4.29-12.82-4.29-6.61,0-14.53,1.2-14.86,1.25l-1.96.3-.08,1.4-31.95,2.67.85,5.34-3.04-7.24-13.77-2.12-5.84,18.54c-.25-7.6-.27-16.05-.27-16.16V1.45s-15.63,2.5-15.63,2.5l.17,2.24c0,.11.85,11.47,1.38,19.64.04.64-.12.77-.21.85-.17.14-.74.49-2.26.58-.15,0-.29.01-.43.01-1.62,0-1.74-.54-1.8-1.41-.53-8.17-1.16-19.49-1.16-19.6l-.15-2.69-14.3,2.16-.91.13c-2.81-3.06-6.85-4.56-12.31-4.56-5.79,0-10.64,1.81-14.03,5.22C1.79,9.94,0,14.81,0,20.61c0,12.11,5.75,16.68,11.37,18.26l-.58,6.75,19.31-1.75-2.74-6.04c2.68-1.22,5.31-3.29,6.98-6.79.69,2.67,2.25,4.88,4.6,6.49,2.71,1.84,6.45,2.82,10.83,2.82.67,0,1.37-.02,2.08-.07,3.89-.25,7.27-1.21,9.87-2.78l-1.02,3.22,15.65,1.02,2.17-6.56,3.42-.03,1.61,6.94,16.74-2.55.06,1.55,15.15,1.34-1.03-24.88,5.5-.32-1.21,20.55,15.71,1.56.11-10.21c.16.02.33.04.5.06l4.28,10.42,16.61,1.22-6.53-13.5c1.15-.7,2.11-1.56,2.88-2.58,1.97,11.06,10.12,13.57,17.09,13.57,15.37,0,18.59-9.57,18.59-17.59,0-6.86-1.25-11.83-3.81-15.2M92.95,19l6.48-.79.74,18.01-7.22-17.22Z"/>
      <path class="cls-3" d="M34.59,7.9l9.83-1.49s.63,11.35,1.16,19.63c.17,2.55,1.73,3.88,4.83,3.68,3.25-.21,4.92-1.49,4.76-4.03-.54-8.28-1.38-19.67-1.38-19.67l10.57-1.69s.03,14.4.56,22.7c.44,6.8-5.56,10.32-13.23,10.81-8.83.57-14.86-2.71-15.28-9.32-.55-8.56-1.82-20.62-1.82-20.62"/>
      <path class="cls-3" d="M84.96,6.28l-10.34-1.59-10.65,33.79,10.65.69,2.13-6.43,7.14-.05,1.54,6.64,12.58-1.91-13.06-31.14ZM77.01,23.89l3.08-8.95,3.29,9.09-6.38-.14Z"/>
      <polygon class="cls-3" points="91.7 8.18 120.31 5.79 120.15 14.77 111.95 15.25 112.96 39.74 102.73 38.84 101.77 15.46 93.03 16.52 91.7 8.18"/>
      <path class="cls-3" d="M171.09,2.45c-10.45,0-16.74,6.37-16.74,16.84,0,11.42,5.28,16.58,15.09,16.58,10.3,0,16.14-4.53,16.14-15.14,0-12.22-4.01-18.28-14.49-18.28M176.83,18.8c-.46,2.31-1.48,4.38-3.39,5.97-2.02,1.69-4.36,2.35-7,1.86-.29-.05-.56-.17-.84-.26-.45-.14-.65-.08-.9.3-.55.84-.99,1.72-1.41,2.63-.23.5-1.2.67-1.58.28-.16-.17-.19-.38-.07-.59,1.72-3.08,3.54-6.09,6.39-8.42,1.2-.98,2.47-1.86,3.9-2.53.24-.12.5-.22.63-.48.15-.31.12-.59-.12-.84-.25-.25-.6-.31-.98-.14-.58.26-1.15.56-1.69.89-2.7,1.61-4.88,3.72-6.69,6.18-.1.13-.18.27-.3.45-1.28-1.9-1.41-3.88-.72-5.94.84-2.51,2.59-4.26,5.17-5.3,1.37-.56,2.8-.91,4.24-1.25,1.68-.39,3.3-.92,4.82-1.7.09-.05.19-.1.29-.14.42-.16.75,0,.78.43.04.64.04,1.29.05,1.94,0,2.23-.12,4.46-.56,6.67"/>
      <path class="cls-3" d="M146.16,26.18c4.04-1.39,6.2-4.5,6.2-9.99,0-8.24-4.53-13.39-14.65-13.39-6.5,0-14.49,1.22-14.49,1.22l-1.86,31.56,10.71,1.06.11-10.31s2.33.36,4.67.58h-.03s4.26,10.36,4.26,10.36l10.87.8-5.75-11.9h-.02ZM138.57,19.16c-2.67,0-6.23-.58-6.23-.58l.21-5.63s3.25-.21,5.33-.21c3.36,0,4.74,1.52,4.74,3.83,0,1.93-1.77,2.6-4.05,2.6"/>
      <path class="cls-3" d="M33.68,22.05c0-12.22-4.01-18.28-14.49-18.28S2.45,10.14,2.45,20.61s4.01,15.15,11.54,16.32l-.51,5.98,12.96-1.18-2.42-5.31c6.23-1.69,9.66-6.25,9.66-14.38M22.19,27.26c-.4.48-.89.83-1.48,1.05-.56.22-1.2.06-1.58-.42-.17-.21-.28-.48-.31-.78l-.13-1.42c-.05-.57-.26-1.47-.76-1.9-.74-.64-1.92-.65-2.66-.25l-1.37.75c-.99.55-1.81-.21-2.14-1.13-.44-1.25-.39-2.64,0-3.91.97-3.16,3.6-5.96,6.97-5.96s4.86,3.46,4.86,7.71c0,3.1-.44,5.1-1.41,6.27"/>
    </g>
  </g>
</svg>