<?xml version="1.0" encoding="UTF-8"?>
<svg id="Layer_2" data-name="Layer 2" xmlns="http://www.w3.org/2000/svg" viewBox="0 0 148.2 138.2">
  <defs>
    <style>
      .cls-1 {
        fill: #9c0e2a;
      }

      .cls-1, .cls-2 {
        stroke-width: 0px;
      }

      .cls-2 {
        fill: #cc173a;
      }
    </style>
  </defs>
  <g id="Export">
    <g id="Group_972-2" data-name="Group 972-2">
      <path id="Path_2682-2" data-name="Path 2682-2" class="cls-1" d="M111.23,138.2c-20.46.04-37.08-16.51-37.12-36.97-.04-20.46,16.51-37.08,36.97-37.12,20.44-.04,37.05,16.47,37.12,36.91.06,20.47-16.49,37.12-36.97,37.18M111.79,117.17l.49-.16c0,.15,0,.3,0,.45-.1,2.54,1.04,4.28,3.14,4.83,2.13.61,4.38-.54,5.13-2.62.75-1.73,1.71-2.57,3.6-2.06.15.03.3.04.45.03,2.03.08,3.85-1.25,4.38-3.21.5-1.97-.4-4.02-2.18-4.99-.44-.3-.74-.77-.82-1.3-.12-2.3-1.33-4.02-3.3-4.47-2.04-.56-4.17.51-4.94,2.48-.8,1.97-1.98,2.68-3.98,2.2-.2-.03-.4-.03-.6,0-2.77.18-4.84,2.81-3.92,5.36.47,1.29,1.68,2.31,2.55,3.46"/>
      <path id="Path_2683-2" data-name="Path 2683-2" class="cls-1" d="M38.66,138.2c-20.5.05-36.49-14.3-38.43-33.04-2.23-20.3,12.42-38.57,32.73-40.8,10.3-1.13,20.59,2.11,28.39,8.93,2.78,2.45,4.92,5.64,7.26,8.58.36.61.43,1.35.2,2.02-4.52,11.55-4.6,23.08.01,34.63.2.73.09,1.51-.3,2.15-7.39,11.38-17.96,17.12-29.85,17.54M35.99,116.88c.32-.17.64-.31.94-.49,1.63-.91,2.49-2.76,2.13-4.59-.38-1.85-1.99-3.56-3.89-3.36-2.6.28-4.1-.44-5.14-2.93-.74-1.76-3.04-2.34-4.83-1.76-1.79.55-2.99,2.22-2.96,4.09.13.73-.26,1.46-.95,1.74-1.72.87-2.61,2.82-2.14,4.69.44,1.93,2.08,3.54,4.1,3.28,2.49-.32,3.81.44,4.75,2.75.7,1.72,2.43,2.32,4.3,2.06,1.65-.17,3.02-1.36,3.44-2.97.16-.83.25-1.67.25-2.52"/>
      <path id="Path_2684-2" data-name="Path 2684-2" class="cls-2" d="M74.24,74.32c-1.53-1.76-2.75-3.29-4.1-4.69-7.02-7.45-16.38-12.27-26.51-13.68-1.04-.09-1.95-.74-2.37-1.7C29.08,31.24,44.2,2.94,70.12.23c20.25-2.25,38.5,12.35,40.74,32.61.02.2.04.4.06.6.76,7.29-.7,14.64-4.2,21.08-.34.63-.92,1.09-1.61,1.28-12.15,1.63-23.14,8.07-30.51,17.87-.14.21-.26.43-.36.66M73.04,45.74c-2.53-1.66-4.98-3.97-8.07-1.2-1.71,1.53-1.64,3.26.02,6.51-1.67,2.24-1.77,4.3-.28,6.03,1.35,1.56,3.77,2.15,5.44.83,2.13-1.7,3.78-1.62,5.87.04,1.52,1.21,3.75.72,5.11-.6,1.36-1.28,1.71-3.31.86-4.98-.29-.51-.6-1.01-.94-1.49.12-.16.2-.29.29-.41,1.5-2,1.5-4.11,0-5.76-1.52-1.67-3.78-1.89-5.87-.55-.8.51-1.6,1.03-2.43,1.58"/>
      <path id="Path_2685-2" data-name="Path 2685-2" class="cls-2" d="M115.96,55.45c4.62-10.52,5.1-22.4,1.35-33.26,2.61-1.03,5.12-2.15,7.72-3,5.89-1.92,12.09-2.69,18.26-2.28,3.58.21,4.58,1.09,4.77,4.63.8,15-4.07,27.87-14.59,38.62-.37.33-.87.47-1.35.37-4.93-2.5-10.26-4.13-15.75-4.82-.09-.01-.17-.1-.41-.25"/>
    </g>
  </g>
</svg>