<?xml version="1.0" encoding="UTF-8"?>
<svg id="Layer_2" data-name="Layer 2" xmlns="http://www.w3.org/2000/svg" viewBox="0 0 49.32 49.32">
  <defs>
    <style>
      .cls-1 {
        fill: #fff;
        stroke-width: 0px;
      }
    </style>
  </defs>
  <g id="Export">
    <path class="cls-1" d="M24.67,49.32C11.09,49.35.02,38.3,0,24.7-.02,11.09,10.99.03,24.58,0c13.64-.03,24.7,10.99,24.73,24.61.03,13.61-11.02,24.69-24.64,24.71ZM32.57,19.74c0-.73,0-1.37,0-2.01-.02-2.13-.93-3.83-2.51-5.19-2.53-2.16-6.87-2.52-9.78-.79-2.31,1.38-3.63,3.4-3.64,6.15,0,1.28.07,2.55.11,3.83.02.59-.09.78-.67.76-.52-.02-1.03-.22-1.56-.29-.36-.05-.77-.12-1.09,0-.72.26-.81.95-.17,1.38.41.28.89.45,1.34.65.41.18.85.31,1.23.53.71.42.9,1.06.58,1.83-.15.35-.32.69-.52,1.01-1.29,2.17-2.99,3.83-5.53,4.44-.21.05-.39.22-.58.33.14.22.23.51.43.65.3.22.67.37,1.02.48.58.17,1.17.34,1.76.41.62.07.88.37,1,.96.25,1.22.28,1.22,1.53.99,1.76-.33,3.4-.11,4.84,1.06.35.28.72.53,1.11.76,2.11,1.23,4.23,1.22,6.33-.02.46-.27.91-.57,1.33-.9,1.2-.93,2.55-1.15,4.01-.98.33.04.65.09.97.15.78.13.87.07,1.06-.72.05-.2.1-.4.14-.6.08-.38.29-.56.69-.64.79-.15,1.58-.35,2.35-.59.32-.1.63-.3.88-.52.37-.33.27-.66-.2-.77-3.07-.69-4.91-2.78-6.21-5.47-.37-.76-.15-1.43.6-1.86.37-.21.79-.33,1.18-.51.5-.23,1.02-.43,1.46-.75.5-.36.42-.9-.11-1.22-.44-.27-.89-.27-1.39-.11-.51.17-1.06.26-1.6.31-.34.03-.54-.2-.51-.61.07-.74.09-1.48.12-2.13Z"/>
  </g>
</svg>