<?xml version="1.0" encoding="UTF-8"?>
<svg id="Layer_2" data-name="Layer 2" xmlns="http://www.w3.org/2000/svg" viewBox="0 0 49.9 49.89">
  <defs>
    <style>
      .cls-1 {
        fill: #fff;
        stroke-width: 0px;
      }
    </style>
  </defs>
  <g id="Export">
    <path class="cls-1" d="M0,24.98C-.02,11.24,11.16.02,24.9,0c13.77-.02,24.99,11.17,24.99,24.94,0,13.74-11.19,24.95-24.93,24.95C11.23,49.9.02,38.72,0,24.98ZM11.26,33.9c.12.08.23.17.35.24,4.38,2.47,8.98,2.86,13.7,1.26,6.18-2.09,10.52-8.08,10.73-14.72.03-1.03.25-1.75,1.09-2.38.65-.48,1.13-1.2,1.69-1.81-.03-.03-.06-.05-.1-.08l-2.83.76s-.05-.09-.07-.13c1.04-.75,1.85-1.66,2.24-2.88-1.07.39-2.1.76-3.13,1.12-.27.1-.48.04-.72-.17-1.76-1.57-3.79-1.98-5.98-1.13-2.15.84-3.35,2.5-3.61,4.79-.07.59,0,1.2,0,1.85-4.72-.34-8.61-2.33-11.73-5.95-.59,1.01-.82,2.03-.76,3.11.09,1.85.95,3.3,2.4,4.43-.03.05-.05.09-.08.14-.78-.22-1.56-.43-2.41-.67.22,2.84,1.68,4.7,4.42,5.57-.01.04-.03.09-.04.13h-2.35c.97,2.44,2.7,3.73,5.34,4-2.49,1.89-5.18,2.62-8.17,2.5Z"/>
  </g>
</svg>