<?xml version="1.0" encoding="UTF-8"?>
<svg id="Layer_2" data-name="Layer 2" xmlns="http://www.w3.org/2000/svg" viewBox="0 0 353.97 85.61">
  <defs>
    <style>
      .cls-1 {
        fill: #363636;
        stroke-width: 0px;
      }
    </style>
  </defs>
  <g id="Export">
    <g>
      <path class="cls-1" d="M18.38,55.69c.73-3.43,1.42-6.86,2.2-10.28,1.99-8.77,4.03-17.52,6.03-26.29.17-.75.39-1.21,1.34-1.18,2.98.07,5.97.06,8.95,0,.91-.02,1.18.35,1.35,1.17,2.5,12.09,5.38,24.1,7.28,36.32.43-.07.38-.45.43-.72,1.63-9.83,3.78-19.56,5.83-29.31.43-2.07.9-4.13,1.26-6.21.16-.9.45-1.28,1.44-1.25,2.71.07,5.43.08,8.14,0,1.22-.04,1.28.39,1.01,1.38-2.07,7.74-4.09,15.5-6.14,23.25-2.08,7.85-4.19,15.69-6.21,23.56-.3,1.18-.86,1.72-2.02,1.85-3.63.4-7.1.34-9.5-3.04-.8-1.12-1.29-2.39-1.57-3.72-1.9-9.01-4.1-17.95-5.66-27.03-.18-1.06-.09-2.17-.66-3.47-.99,5.8-2.33,11.26-3.68,16.72-1.53,6.2-3.07,12.41-4.54,18.62-.27,1.14-.74,1.76-1.97,1.89-1.57.16-3.14.29-4.7.1-2.77-.35-4.66-1.92-5.74-4.47-1.63-3.87-2.24-8.02-3.25-12.06C5.33,40.92,2.8,30.28.17,19.66c-.31-1.24-.35-1.82,1.26-1.74,2.81.14,5.64.06,8.46.02.84-.01,1.21.2,1.38,1.12,2.33,12.18,4.84,24.32,7.12,36.62Z"/>
      <path class="cls-1" d="M127.5,34.83c2.87-3.76,6.6-5.47,11.2-5.35,4.61.12,8.04,2.21,10.11,6.6,1.78-2.23,3.59-4.12,6.06-5.27,5.91-2.75,14.99-1.93,17.79,7.91.62,2.19.89,4.46.9,6.74.01,6.78-.05,13.55.05,20.33.02,1.62-.47,2.02-2,1.93-2.27-.13-4.56-.09-6.83-.01-1.15.04-1.46-.34-1.46-1.47.03-6.72-.02-13.44-.02-20.17,0-1.1-.17-2.16-.45-3.21-.92-3.46-2.93-5.03-6.13-4.83-2.93.19-5.36,2.54-5.8,5.66-.1.69-.1,1.41-.1,2.11,0,6.78-.03,13.55.02,20.33,0,1.18-.26,1.64-1.52,1.58-2.33-.1-4.67-.11-6.99,0-1.4.07-1.85-.28-1.83-1.77.09-6.56.04-13.12.04-19.68,0-1.74-.14-3.46-.94-5.06-1.7-3.41-5.85-4.3-8.75-1.82-1.97,1.69-2.81,3.9-2.8,6.49.03,6.67-.05,13.34.05,20,.02,1.56-.47,1.9-1.91,1.83-2.33-.11-4.66-.07-6.99-.01-.95.02-1.33-.22-1.33-1.26.03-11.66.03-23.31,0-34.97,0-.95.34-1.19,1.23-1.17,2.44.05,4.88.05,7.32,0,.86-.02,1.14.28,1.1,1.12-.05,1.13-.01,2.27-.01,3.41Z"/>
      <path class="cls-1" d="M242.62,38.4c0-6.29.04-12.58-.03-18.87-.02-1.32.39-1.64,1.63-1.59,2.38.09,4.77.06,7.16,0,.92-.02,1.22.26,1.2,1.19-.05,2.98.04,5.97-.04,8.95-.03,1.22.22,1.74,1.58,1.65,2-.13,4.01,0,6.02-.05.87-.02,1.27.18,1.24,1.15-.06,2.44-.05,4.88,0,7.32.02.95-.35,1.21-1.24,1.19-2.06-.05-4.12,0-6.18-.02-.85-.01-1.44.04-1.41,1.17.13,4.71-.15,9.43.16,14.14.3,4.41,2.14,5.95,6.46,5.14,1.51-.28,2.01-.04,1.9,1.56-.11,1.67.04,3.36.09,5.04.02.58-.04,1.08-.73,1.25-4,.99-8.01,1.51-11.95-.23-4.33-1.91-5.38-5.76-5.8-9.97-.04-.38-.06-.76-.06-1.14,0-5.96,0-11.93,0-17.89Z"/>
      <path class="cls-1" d="M110.87,42.88c0,7.74-.03,15.49.03,23.23.01,1.31-.37,1.65-1.63,1.59-2.38-.1-4.77-.07-7.15-.01-1,.02-1.42-.18-1.42-1.32.04-15.71.04-31.41,0-47.12,0-1.13.4-1.34,1.4-1.32,2.49.06,4.99.08,7.47,0,1.13-.04,1.32.38,1.32,1.39-.04,7.85-.02,15.71-.02,23.56Z"/>
      <path class="cls-1" d="M225.74,36.93c1.49-2.7,3.22-5.03,6.04-6.4,1.7-.83,3.49-1.14,5.36-1.04.92.05,1.42.37,1.37,1.48-.1,2.27-.11,4.55,0,6.83.06,1.33-.23,1.78-1.67,1.6-2.79-.35-5.4.12-7.48,2.27-1.74,1.8-2.27,4.02-2.28,6.41-.02,6.02-.05,12.03.03,18.05.02,1.32-.39,1.64-1.64,1.59-2.49-.09-4.99-.06-7.48,0-.99.02-1.42-.17-1.41-1.31.04-11.6.04-23.2,0-34.79,0-.96.21-1.34,1.25-1.3,2.27.08,4.55.06,6.83,0,.86-.02,1.13.26,1.1,1.11-.05,1.84-.02,3.68-.02,5.52Z"/>
      <path class="cls-1" d="M315.77,85.6c-1.28.05-2.48-.29-3.59-.89-1.49-.81-2.36-1.95-2.19-3.8.63-6.85,1.2-13.7,1.77-20.55.13-1.51.58-2.78,2.16-3.29,1.74-.56,3.43-.49,4.93.71.64.51.85,1.24.92,2.01.63,7.12,1.26,14.23,1.9,21.35.14,1.63-.74,2.68-2.02,3.44-1.18.7-2.48,1.07-3.88,1.02Z"/>
      <path class="cls-1" d="M353.96,25.36c-.09,1.48-.76,2.8-2.47,3.58-6.2,2.83-12.38,5.72-18.56,8.61-2.14,1-3.73.5-5.03-1.65-1.22-2.01-.89-3.92.96-5.23,5.36-3.77,10.72-7.53,16.09-11.28,2.89-2.02,5.03-1.68,7.23,1.09,1,1.26,1.76,3.24,1.77,4.89Z"/>
      <path class="cls-1" d="M315.71.01c1.67,0,3.01.42,4.21,1.21,1.15.76,1.88,1.79,1.75,3.26-.64,7.17-1.26,14.34-1.93,21.51-.17,1.86-1.58,2.83-3.89,2.84-2.34.01-3.74-.9-3.91-2.76-.69-7.22-1.31-14.45-1.96-21.67-.14-1.55.69-2.58,1.92-3.31,1.23-.73,2.57-1.15,3.81-1.07Z"/>
      <path class="cls-1" d="M277.71,24.68c.21-2.37,1.39-4.49,3.6-5.94,1.54-1.01,3.07-1,4.67.14,5.51,3.93,11.05,7.82,16.63,11.66,1.35.93,2.12,1.98,1.74,3.65-.43,1.86-1.43,3.26-3.31,3.88-.66.22-1.28,0-1.88-.27-6.43-3-12.85-6.01-19.28-8.99-1.68-.78-2.16-2.15-2.16-4.12Z"/>
      <path class="cls-1" d="M277.72,61.14c-.04-2.43.73-3.68,2.51-4.49,6.21-2.82,12.37-5.74,18.55-8.63,2.07-.97,3.7-.37,4.98,1.84,1.16,2.01.88,3.76-.85,4.98-5.76,4.05-11.53,8.08-17.29,12.14-1.39.98-2.78.83-4.11.02-2.4-1.45-3.59-3.66-3.79-5.87Z"/>
      <path class="cls-1" d="M353.97,60.81c-.42,2.73-1.62,5.04-4.28,6.38-1.32.67-2.59.59-3.82-.29-5.75-4.06-11.52-8.09-17.27-12.15-1.61-1.14-1.86-3.12-.71-5.03,1.23-2.03,2.87-2.67,4.76-1.79,6.33,2.94,12.65,5.91,18.99,8.84,1.72.79,2.28,2.18,2.33,4.04Z"/>
      <path class="cls-1" d="M94.5,66.25c-.4-1.53-.38-3.12-.4-4.68-.08-6.01-.04-12.03-.16-18.04-.13-6.39-3.24-11.21-8.76-12.95-6.92-2.18-13.69-1.16-20.22,1.84-.66.3-.68.67-.49,1.29.49,1.55,1,3.1,1.34,4.68.26,1.21.69,1.14,1.63.66,3.67-1.87,7.55-2.67,11.65-1.93,2.46.44,3.99,2.05,4.37,4.23.21,1.19,0,1.7-1.43,1.73-4.91.1-9.74.75-14.1,3.25-4.73,2.7-6.84,6.86-6.26,12.22.52,4.75,3.21,8.01,7.81,9.39,4.07,1.22,8.03.69,11.74-1.47,1.18-.68,2.07-1.7,3.1-2.57,2.71,3.94,4.81,4.91,8.81,4.18,1.06-.2,1.67-.56,1.35-1.8ZM77.42,61.03c-2.38.19-4.2-.78-5.06-2.69-.93-2.06-.47-4.6,1.28-6.07,2.8-2.35,6.22-2.49,9.66-2.5.63,0,.62.47.62.91,0,.76,0,1.51,0,2.27-.01,4.9-2.29,7.74-6.49,8.07Z"/>
      <path class="cls-1" d="M210.29,65.94c-.17-.61-.14-1.29-.18-1.94-.37-6.39-.13-12.79-.19-19.18-.07-7.32-2.98-12.35-8.86-14.24-6.92-2.22-13.7-1.15-20.23,1.83-.62.28-.71.63-.49,1.28.51,1.48,1.01,2.98,1.33,4.51.28,1.32.76,1.33,1.84.75,3.19-1.68,6.63-2.33,10.22-2.07,2.94.21,5.06,1.81,5.58,4.15.39,1.75.27,1.89-1.55,1.97-4.85.22-9.62.83-13.94,3.28-5.14,2.91-7.55,8.69-5.92,14.15,1.56,5.24,6.31,8.33,12.31,8.04,3.97-.19,7.33-1.69,10.01-4.65,2.72,3.96,4.46,4.78,8.46,4.29,1.46-.18,2.02-.7,1.6-2.18ZM199.74,52.98c0,4.92-2.13,7.64-6.33,8.04-2.4.23-4.49-.86-5.23-2.73-.91-2.3-.21-5,1.78-6.4,2.71-1.92,5.85-2.11,9.02-2.13.55,0,.78.23.77.78-.02.81,0,1.63,0,2.44Z"/>
    </g>
  </g>
</svg>