<?xml version="1.0" encoding="UTF-8"?>
<svg id="Layer_2" data-name="Layer 2" xmlns="http://www.w3.org/2000/svg" viewBox="0 0 49.43 49.42">
  <defs>
    <style>
      .cls-1 {
        fill: #fff;
        stroke-width: 0px;
      }
    </style>
  </defs>
  <g id="Export">
    <g>
      <path class="cls-1" d="M24.7,49.42C11.05,49.41-.02,38.32,0,24.66.02,11.03,11.11-.02,24.75,0c13.64.02,24.69,11.1,24.68,24.73-.01,13.63-11.09,24.69-24.72,24.69ZM24.83,14.57c-3.2.12-6.26.24-9.31.36-2.23.09-3.36,1.21-3.82,3.35-.06.28-.11.56-.14.84-.34,3.32-.38,6.65-.09,9.98.09,1.07.32,2.15.61,3.18.28,1,1.05,1.62,2.04,1.91.43.13.88.24,1.32.26,2.76.12,5.52.3,8.28.29,3.51-.01,7.03-.15,10.54-.29,1.64-.07,2.76-.93,3.25-2.52.17-.54.31-1.1.37-1.66.35-3.29.37-6.58.11-9.88-.08-.99-.24-2-.51-2.95-.44-1.56-1.59-2.38-3.19-2.46-3.19-.17-6.39-.28-9.45-.4Z"/>
      <path class="cls-1" d="M21.38,29.73v-10.04c2.81,1.68,5.55,3.32,8.38,5.02-2.82,1.69-5.55,3.33-8.38,5.02Z"/>
    </g>
  </g>
</svg>